<?xml version="1.0" encoding="UTF-8"?>
<svg id="Layer_1" xmlns="http://www.w3.org/2000/svg" version="1.1" viewBox="0 0 606.3 461.8">
  <!-- Generator: Adobe Illustrator 30.5.1, SVG Export Plug-In . SVG Version: 2.1.4 Build 3)  -->
  <defs>
    <style>
      .st0 {
        fill: #371d09;
      }

      .st1 {
        fill: #744e20;
      }

      .st2 {
        fill: #6f481c;
      }

      .st3 {
        fill: #422e1d;
      }

      .st4 {
        fill: #46301c;
      }

      .st5 {
        fill: #4a321c;
      }

      .st6 {
        fill: #b47f2c;
      }

      .st7 {
        fill: #82561f;
      }

      .st8 {
        fill: #915b2e;
      }

      .st9 {
        fill: #321805;
      }

      .st10 {
        fill: #e6a33c;
      }

      .st11 {
        fill: #e6a33b;
      }

      .st12 {
        fill: #69441f;
      }

      .st13 {
        fill: #4a321e;
      }

      .st14 {
        fill: #4c2a17;
      }

      .st15 {
        fill: #4b321e;
      }

      .st16 {
        fill: #e39f38;
      }

      .st17 {
        fill: #3b2210;
      }

      .st18 {
        fill: #faf7f0;
      }

      .st19 {
        fill: #4b331f;
      }

      .st20 {
        fill: #4d341e;
      }

      .st21 {
        fill: #fcfaf6;
      }

      .st22 {
        fill: #4c331e;
      }

      .st23 {
        fill: #e6decb;
      }

      .st24 {
        fill: #fbf8f3;
      }

      .st25 {
        fill: #fbf9f5;
      }

      .st26 {
        fill: #442e1c;
      }

      .st27 {
        fill: #fbfaf6;
      }
    </style>
  </defs>
  <path class="st18" d="M33.4,54.1l-.5.5-2.8,2.4c-.4.3-1.2,1.1-1.5,1.5l-1.6,2.4-1,2-1,2.2c-.2.4-.7,1.6-.7,1.9l-.3,3c.8,13.2.9,27.6,0,41v13c.1,0,.1,2.2.1,2.2h-1.9s-.8,1.1-.8,1.1l-1.4-2.3-.9-1.5,1-2.5,1-1.9c0,0,.7.9.7,1l.5,4.7c-.8.8.2-.2.7-.7v-54.1c0,0-.2-2-.2-2l-2.6,2.3c-1,.9-4.2-2-2.6-4.8s4.3-2.3,4.9-1.2l1,1.9,1.1-2.6,1-2.2,2.4-3.7c.3-.5.1-1.5,0-3.4l2.4-.2,1.1.5,1.8-.6Z"/>
  <path class="st18" d="M598.8,383.8c-1.1-1.4-2.2-2.7-3.6-2.8l-2.4-.2c.3-.2,1-.6,1.4-.7l2.2-.7-3.7-1c-.6-.2-1.3-2.2-1.3-2.9v-1.9c-.1,0,1-.5,1-.5,2.2-1,4.9-.5,7.2,1.2l2.3,1.7c1.1.8,2.1,2.8,2.2,3.8l.2,3c0,1.6-2,1.6-3,2.6-1,1.6-1.1,1.9-.2.4l-1.1-3c-.1-.3-1,.9-1,.9Z"/>
  <path class="st18" d="M39.1,451.8h-7.5s-.1,1-.1,1l6.7.2c.8,0,1.8,0,1.7,0l-1.4,2.1c-.3.5-1.1,2.6-1.7,2.5l-3.6-.2-2.3-.4-2.1-.9c-.4-.2-1.4-1-1.6-1.3l-1.8-2.4c-.2-.3,1.4-.3,1.7-.5s1.5-.9,1.3-1.2l9.5.2c.3,0,1.9.7,1.3.9Z"/>
  <path class="st18" d="M277.3,432.7l-2.4.4-2.1.3c-.5,0-2,.6-2.3,1l-1.4,1.6-1.4,1.6c-.2.3-1.7-.3-2-.5l-1.9-1.3-1.6-1.2-1-2.4-1.7-1,3.3-.4c.3,0,1.6-.6,1.3-.9l2.4.3,5.3,1,3.1.7,2.2.8Z"/>
  <path class="st18" d="M541,437.8c.7,1.7,2.5,1,1.8,2.3l-1.3,2.2-1.6,2.3c-.3.4-2.2.4-2.7.3l-2.8-.6c-.3,0-1.2-.7-1.5-.9l-2-1,3.2-1.4-3.2-.7,1.3-.4,3.3-.9,3.9-1.1,1.7-.4Z"/>
  <path class="st18" d="M263.6,29.2l-.4-2.3-.6-3.6-.7-4.2c.3.3,1-.8,1-1.2l.3-2.8c0-.3,2,.3,2.2.5l2.7,3.2c.3.4-.3,2.4-.5,2.9l-.7,2.2-1,3.3-1.7-1.5-.6,3.5Z"/>
  <path class="st18" d="M283.1,87.1v-3.2c-.2-1.2-1.9-2.8-3.9-3.6,0,0,1-1.1.7-1.2l-4.8-.3c0-.4-.2-2.5.2-2.6l3.3-.8,2.4-.6c.5-.1,2.3.1,2.7.4l2.1,1.8c.4.3.3,2.3,0,2.6l-2.3,2c-.3.3,0,.7.4,1.6v3.5c0,.2-.3.2-.8.3Z"/>
  <path class="st18" d="M544.9,437c-.4-.3.6-.6,1.2-.8l4.1-1.2c.5-.1,1.5-1.5,1.6-2l.4-3c0-.3.6-1.5.6-1.5l.2,4.1h1c0,.1.6-2.5.6-2.5l2.4,2.2c.4.4,1.6,1.7,1.3,2.2l-1.3,2.2c-.2.3-1.5,1.3-1.9,1.3h-2.9s-3-.1-3-.1l-2.1-.7h-2.2Z"/>
  <path class="st18" d="M591.2,367v-6.9c0-.4-.7-2.3-.8-2.5l-.3,7.4v2.4c-.4,0-.8-.6-.8-.8l-.4-8.5c.2,0,1.5-.7,1.5-1.2l-.3-3.2c0-.4,1.6-.8,2-.6l3.7,1.2c.5.2.5,2.1.4,2.5l-.9,2.2-1,2-1.5,2.3-.8,2.5c-.1.4-.6,1.3-.9,1.1Z"/>
  <path class="st18" d="M568,429.7l2-1,2.1-.8,3.7-1.4,1.2-.5,2.1,1.4c.3.1,1.5,1.2,1.4,1.6l-1.2,2.6c-.5,1.1-3.3,1.6-4.3.9s-2.1-1.3-2.6-1.4l-2.4-.9c-.4-.2-1.5-.3-2-.3Z"/>
  <path class="st18" d="M380.4,456.8h1.6s10.3.2,10.3.2l1.8-1.7.9-1.6-.3,1.9c0,.7-2.1,2.3-2.8,2.3h-9.2c0-.6-.4,1,0,1h3.4c0,0,6.3.2,6.3.2-.5.2-1.8.8-2.2.8l-4,.2-1.9.9-3.1.7c-.3,0-1.5-.9-1.8-1.1l-1.7-1.3-1.7-1.2,3.1-.3c.3,0,1.7-.7,1.3-1Z"/>
  <path class="st18" d="M606.2,402.1l-1.8,2.2-2.3,1.8-1.7,2v-2c0,0-.3-7.1-.3-7.1v-3.4c0,0,1.6,2,1.6,2,.2.3,1.3.9,1.8,1.1l2.1,1c.4.2,1,2.1.7,2.5Z"/>
  <polygon class="st18" points="174.2 453.9 176.1 454.9 135.1 454.9 137 453.9 174.2 453.9"/>
  <path class="st18" d="M245.3,426.5l-3.5.6c-.5,0,1.7.6,2.2.7l2.6.8-5.6.2c-.5,0-2.4,0-2.9-.1l-3.9-1-2.2-.6-2.8-.7c-.4-.1,1-.1,1.9-.2h2.9c.3-.1,1.5-1.2,1.5-1.2l1.6.2,5.8.7c.5,0,2.4.7,2.3.7Z"/>
  <path class="st18" d="M476.1,451.9c0,.3.2.9.4.9l5.5.3c.3,0,1.2,1.6,1,1.8s-1.5,1-1.9,1h-3c-.5,0-2.1-.1-2.6-.2l-2.4-.6-3-.8,4.8-.4v-1.3c0,0-3-.1-3-.1l2.3-.3,1.9-.3Z"/>
  <path class="st18" d="M590.1,420.5l1.8-1,2-1.1,3.1-2.7,1-.9,1.5.6c1.2.2,1.7,2.8,1.2,2.8l-2.6.3c-.4,0-1.9.8-2.2,1l-2.2,1.8c.6,0-1.6,0-1.9,0l-1.7-1Z"/>
  <path class="st18" d="M447,455.7l1.3-.8,1.8-1.3,1-3.8.6-1.3.5,1.3,2.5,3.5,1.3,1.8c.2.3-.3,1.7-.6,1.9l-2.2,1.2c-.3.2-1.6-1.1-1.7-1.5l-.5-2.9-2.1,1.7c-.3.3-1.4.1-1.8.1Z"/>
  <polygon class="st18" points="86.3 49.2 85.9 49.9 60.1 49.9 59.1 50.2 60 48.9 85.2 48.9 86.3 49.2"/>
  <path class="st18" d="M250.5,4l-1.4.8-2.3.8-2.3.8-2.3.8-3.1,1-1.8.7-2.1,1.1-2,1-2,1-1.9,1-3.1,2-2.9,2-3.4,2.6-.6.5.9-1.4,3-2.6,3.1-2.1,2.1-1.4-.8-.8.5-.6.8.9,1.6-.9,1.9-1,2.8-1.5c-.5,0,.8,0,1.4-.1l-3.4-1.7,1.2-1.8c.8-1.2,2.3-2,3.2-1.4l2.7,1.5c.4-.3,0,0-1.6,1.4-1-.4.7.3,1.4.5l3.2-1.4,2-.7,2.4-.7c.7-.2,2.3-.3,3-.3Z"/>
  <path class="st18" d="M350.4,449.6l.5,1.4,1,3,1,1.6c-1.1,1.3-.5,1.8,1.3.9.3.3.7,1.3.3,1.3h-3.5c-.5-.1-1.7-1.4-1.9-1.9l-.6-2.1-1-3.2c1.3-.6,1.8-.9,1-.5.7,2,1,3,1.1,2.6l.7-3.2Z"/>
  <path class="st18" d="M22.3,450.7h-2.1c0,.1-5.3.6-5.3.6l2.2.6,2.8.3c.1-.3-.1.3-.5,1l-6.8-.5c-.4,0-1.9-.5-2.3-.6l-2.3-.7,5.1-.4c.3,0,1.4-1,1.2-.9h5.8c.6,0,2.4.5,2.3.8Z"/>
  <path class="st18" d="M138.9,46l-7.8-.2-2.2-.3c-.4,0,.9-1.6,1.3-1.6h8.6c1.2,0,1.3,2.1,0,2.1Z"/>
  <path class="st18" d="M73.5,47.9h-8.1c0,0-1.3-2-1.3-2h8.2c0-.1,2,.4,2,.4.4.1-.7,1.6-.7,1.6Z"/>
  <path class="st18" d="M490.2,301.9h-5.2s-2-.4-2-.4l2.4-1.5,6-.2c.1,0,1.2,1.5.7,1.6l-2,.5Z"/>
  <path class="st18" d="M22,89.9c-.1,0-1.8-1.1-1.8-1.4v-6.8c.8.3,2.1,1.5,2.1,2.1l-.3,6.2Z"/>
  <path class="st18" d="M2.8,439.4v2.8c-.1,0-2.8-3.2-2.8-3.2-.3-.3.4-2.2.7-2.5s2.3-.7,2.2-.3v3.2Z"/>
  <path class="st18" d="M49.8,451.7l.5-.6,1.8-1.6c.2-.2.8-1.2,1-1.6l.9-1c.3,0,1.3.2,1.5.4l1.4,2.1c.2.3-1.2,1.7-1.6,1.6l-2.4-1.1c-.6-.3-1.2,1.8-3.1,1.8Z"/>
  <rect class="st18" x="423.6" y="457.9" width="12.1" height="1"/>
  <path class="st18" d="M12.3,380.1s-.5.2-1.3.5l-2.2.9c-.5.2-1.8,1.4-2,1.9s-.5,2.1-.6,2.6v8.5c0,0-.5.4-.6.5l-.4-2.2.2-8.6,1.1-2.1,1.6-1.3,2.1-1,2.2.3Z"/>
  <path class="st18" d="M261.7,17.2l-.5-2.4-.2-1.9,1.6-2.6,1.1.2.6,2.7c0,.4-1.3.8-1.9.9l-.6,3Z"/>
  <path class="st18" d="M255.8,2h-3.4c0,0,.2-1.8.2-1.8l2.5-.2c.4,0,1.7.2,2.2.3s-1,1.7-1.5,1.7Z"/>
  <path class="st18" d="M325.4,452.4l-1.4.5c-.2,0-.7.3-.9.5l.4.4,3.8.3-2.1,1.1-2.2-.8-.5-.5-4.7-.3,2.2-.7,2-1.1,1.9.3,1.4.3Z"/>
  <polygon class="st18" points="259.9 6.1 258.8 3.9 251.2 4 251.8 2.8 258.9 3 260.3 4.8 259.9 6.1"/>
  <polygon class="st18" points="370.4 457.8 372.4 458.7 365 459 365.7 457.9 370.4 457.8"/>
  <polygon class="st18" points="210.4 423.3 208.2 423.8 205.4 424.2 205.5 422.6 210.4 423.3"/>
  <polygon class="st18" points="224.5 425.1 226.3 425.5 221.5 426.2 221.5 424.6 224.5 425.1"/>
  <polygon class="st18" points="220.2 423.8 219.6 424.9 216.8 425.1 214.8 424.1 220.2 423.8"/>
  <polygon class="st18" points="309.4 449.4 308.1 450 305.7 450.5 301.9 450.7 304.1 449.9 306.1 448.8 308.1 449.2 309.4 449.4"/>
  <polygon class="st18" points="488.1 449.8 488.2 450.3 488.6 450.9 492.4 451.1 490.3 452.2 488.1 451.5 487.6 450.9 483.9 450.8 486.1 449.9 488.1 449.8"/>
  <path class="st18" d="M307.6,450.5c2.8.7,3.8.9,3.4,1l-3.5.6v-1.5Z"/>
  <polygon class="st18" points="496.6 449 498.4 450.8 494.9 450.8 496.6 449"/>
  <path class="st18" d="M289.5,446.2l.4,1.8-2.7-.3c-.2,0,.4-.3,2.3-1.5Z"/>
  <path class="st18" d="M251.8,428.8v1.3c-1.7-.4-3-.8-2.5-.7s1-.2,2.5-.6Z"/>
  <polygon class="st18" points="300.2 448.6 299.5 450.3 296.9 449.4 300.2 448.6"/>
  <path class="st18" d="M331.3,453.7l-2.2.2c-.3,0-1.3-1-1-1.1l2.1.3,1.2.6Z"/>
  <path class="st18" d="M285.3,444.8c-.3,0-1.6-.3-1.7-.6l-.3-2.4,1.1,1.7.8,1.3Z"/>
  <path class="st18" d="M522.1,442.9c0,.5,0,.8-.2.8h-1.9c0,0,.1-.8.1-.8h2Z"/>
  <path class="st18" d="M37.5,52.1l-.5.5-1.5.7-1.3.7.2-.7c0-.2.9-1.1,1-1.1h2.1Z"/>
  <path class="st18" d="M13.5,352.8v-1.9c.1,0,0,1.9,0,1.9Z"/>
  <path class="st18" d="M525.1,444.4h-2s2,0,2,0Z"/>
  <path class="st18" d="M25.3,128.9c0,0-1.2-.8-1.2-.8s.2-1.3.2-1.4l1.1,1v1.2Z"/>
  <path class="st18" d="M600.4,412.1l.2,1.7-.2-1.7Z"/>
  <path class="st18" d="M314.1,453c1.5-.7.8-.4,0,0-.9-.9-1.4-1.3,0,0Z"/>
  <g>
    <path class="st13" d="M172.1,46c7.2-.7,14.4-.9,21.8-.7,3-3.1,5.8,3.7,2.6,5-.1,2.3,0,4.5.6,6.6,1.3,2.8,1.4,8.7.9,12,2.1-.3,2.4.9.6,3.4l.4,4c.9.8.8,2.6,0,3.7,1-.3,1.8,0,1.5.6-1.2,2-1.3,4-.7,6.5.6.9,1.3,1.7,2,2.4,2.2,6.7,1.2,24.2-1.1,30.8-3.5,9.9-12.3,14.4-22.1,15.6l-54.4,1.2-1.2-2c-9.3-.4-18.7-.4-28.3-.1l-.7-1c-12.8,1.7-25.8,2.2-38.9,1.5-3.1,1-5.8,1.1-8.1.5-4.3.7-8.9,1.1-13.7,1.1-.4,1.8-1.8,2.1-4,.7.2-1.9-.8-3.9-3.2-6.1l-.5-1.4-.5-1.3-1.1-2.2v-.6c-2.3-.3-2.5-1-.5-2.2-.3-4.5-.1-8.9.4-13,.9-13.4.9-27.8,0-41-2.5-2.7-2.4-4,0-3.9,1.7-3.4,3.4-6.8,5-10.3l4.3-1.7.7-.2c.8-1,1.9-1.6,3.3-1.9h.7c5.6-1.7,11.6-2.3,18.1-1.9h2.8s.9-.8.9-.8l26.2-.2h1.9s1.4-.8,1.4-.8c9,.2,18,0,26.8-.3h2.8c8.2-.6,16.6-.9,25.2-1h1.8c7.9-.7,16-1,24.2-.9l1.8-.2Z"/>
    <path class="st21" d="M591.2,367v5s0,1.8,0,1.8c1.5-.3,2.3.7,2.5,2.9,5.4,1.2,3.9,4.2-1,4.2l-1,.6-2.7,1.5-1.9,1-4.2,2-2.6,1.2-5,2-8,3.1-2.9,1-8.3,2.7-3.9,1.2-2.1.6-4.1,1.1-2.1.6-4.9,1.4-4,1.1-2,.5-4,1-4,1-4,.9-9,2-2.8.6-4.9,1-5,1-4.3.8-2.3.4-3.7.6-4,.7-3.7.6-6.3.9-5,.7-3.6.5-9.3,1-9.1.9-9,.7-7,.4-18,.6-40-.6-7-.4-8-.6-11-1-8.7-.8-5.3-.6-5-.6-7.1-.9-8-1-2.9-.4-4-.7-5.1-.8-6.2-1-6-1-5.8-1-6-1-6-1-6-1-6-1-6-1-6.9-1.1-3-.5-4-.6-3.7-.6-4.3-.6-4.1-.6-2.8-.4-6-.7-9-1-2.9-.3-7-.7-6-.6-4-.4-7-.6-6-.5-7-.5-8-.6-5-.3-10-.6-8-.5-9-.5-7-.4-10-.6-6-.4-11-.7-7-.4-9-.6-5-.4-8-.6-5-.4-6-.5-5-.5-6-.6-4-.4-6-.7-8-1-6.3-.8h-.6c-6.4-1.4-7.2-3-2.4-4.8-.4-1.9,0-2.4,2-2.8h2.3c2.6.7,5.3,1,8.3.8l1.7.2,4,.4,4.1.4,5.9.6,6,.6,8.1.8,6.9.6,2.6.2,5.4.4,5,.3,9,.6,7,.4,10,.5,8,.4,10,.6,8,.5,9,.6,7,.4,9,.6,6,.4,8,.6,6,.4,8,.6,5,.4,7,.6,3.9.4,5,.5,4,.4,6,.6,4,.4,12.1,1.4,4.8.6,9.1,1.4,7,1.1,5.1.8,2.9.5,3.1.5,2.9.5,3.1.5,4.3.7,3.6.6,2.6.4,4.3.7,14.2,2.4,3.8.6,5.1.9,3.9.6,14.1,2,3.9.5,14.1,1.5,5,.5,7,.6,4,.3,10.1.7,6.9.4,26.1.6h2.9s20-.6,20-.6l9-.4,9.1-.6,4-.3,2.9-.3,13.1-1.4,4-.5,11.1-1.5,18.1-2.9,4.2-.8,9.4-1.9,7.3-1.6,2.7-.6,2.3-.5,3.9-1,7.1-1.9,4.9-1.3,4-1.1,2-.6,6.1-1.9,2.2-.7,4.7-1.5,2.2-.7,2.4-.8,2.3-.8,2.1-.7,2.1-.7,5.1-2.1,3.5-1.5,3.5-1.5,3.5-1.5,2.1-.9,2.1-1.1c.5-.3.7-2,.8-2.5v-3.2c0,0,.1-1.6.1-1.6-.5-1.7-.8-9.3.3-9.9,1.8-1.1,2.8.6,2.8,2.4l-1.9,7.1Z"/>
    <path class="st22" d="M259.9,6.1v.8c0,0,1.1,4.2,1.1,4.2v1.8s1.3.1,1.3.1c-.6,1.1-.8,2.5-.7,4.2l.3,1.9,2.1.6c.7,3.2.5,6.3-.5,9.5l.4,2.7c.5,1.2.9,2.6,1,4.2v.9c3.7,3,4.1,8.8-.7,10.7l-13.4-5.3c-15.3-2.2-30.7-2.5-46.3-1-1.8-1.3-.5-5.4,1.5-6.6v-.6c0,0,2.1-2.2,2.1-2.2.1-.1,0-.5,0-.8l3-3.2c.1-.2,0-.5,0-.7,2.2-2.5,4.2-4.9,6.1-7.3l1.2.2c.2,0,.4,0,.6,0,5.1-5.1,10.5-8.3,16.9-11.1-.6-2.2.9-2.7,4.3-1.7l10.1-3.3h.7c2.5-.7,8.8-2,8.7,2.1Z"/>
    <path class="st16" d="M313.7,184.1l.3.9,1.9,2.2c0,.2,0,.6,0,.8l3,3.2v.6c3.8.4,6.3,4.2,7.2,8.2l.2,2.2c-4.3,2.7-8.7,5.3-13.1,7.8l-2-1.2c-2.6,0-5.3-.3-8.2-.8l-3,.7c-2.2,2-4,2.4-5.5,1.3l-.5-1.2c-.2-.4-.9-1.5-1.2-1.7l-3.5-3.5-2.5-2.6-2.3-2.5c-.3-.4-.7-1.9-.8-2.4l-1.6-1.3v-2.2c3.3-1.5,4.9-4.7,6-8.1,1-.9,20.3-9.3,21.5-9.1s7,7.2,4.1,8.6Z"/>
    <path class="st18" d="M265,36.9l1.8.3c.5.1,1.8,1.4,2.1,1.8l1.5,2.5c.2.3.5,1.9.4,2.2l-1.1,1.8-1.2,1.8c-.1.2-1.5,0-1.9-.1-2.1-.3,0,.5-1.6,2.4l-1.6,1.8,3.2,3.2,2.5,2.5,2.1,2.1c-1.2,1-.7.5.5-.4-.1,0,2.6-.1,2.6.4v5.2c0,0-1.8,1.8-1.8,1.8l-.5,2.9-.4-2.2-.7-3.7-.4-2.2c0-.4-.7-2.1-1-2.4l-5.6-5.9c-.3-.3-1.8-1.2-2.2-1.3l-2.8-1-2.3-.8-4.6-1.2-11.4-1.4-23.1-.3-10.5.4c-.3,0-1.3,1.5-1.3,1.9v4.8s0,2.1,0,2.1c-.7.5-1.8,1.1-2.3.7-1.7-6.3-2-4.7-.8,4.9,3.7-1.1,4.8,11.7,4.2,13.4s-1,1.9-2.8,2c.6,3.4,2.3,14.8-2.8,12.2-.1-2.2-.4-2.9-.8-2-.2,0-.7-.4-.7-.5v-6.6c.5-1,.8-4.4-.2-3.7-.3.1-.9-1.1-.9-1.4v-3.9c0,0-.1-2.1-.1-2.1.3-2.6.5-10-.4-12.6s-.2.2-.5.6c-.4.3-1-1.7-1-2.2l-.3-7.8c0-.4-1.4-1.2-1.9-1.2l-20.7.2h-1.1c-1,.2,1.2-1.1,1.5-1.1h20.3c1.1-.7,1.6-1,.8-.5l-3.3-.8c-.3,0-1.5-1.4-1.2-1.6l1.9-.7,2.4-.9,2.9-1.1,2.1-1.1h1.8c0,0,1.6,2.1,1.6,2.1l.8-3.5c.1-.5.5-1.5.9-1.6l1.5-.4-.7,1.5-1,2c-.1.3.5,1.3.8,1.3l7.7-.6,4.2-.3,17.4-.3,7.7.6,9.2,1.4,3.1.9,3,1.2,3.5,1.5,2.8,1.3c.4.2,2.2,1.1,2.1.6l-.4-4.2-.3-2.8-.2-1.9Z"/>
    <path class="st18" d="M313.7,184.1l-.7-1-1.7-2.5-2.3-3.5c-.2-.3-1.7.6-2,.7l-2.3.8-2,.8-4.4,1.8-3.5,1.5-2.1.9c-.6.2-2.3.8-2.6,1.4l-1.1,3.1c-.2.6-1,2.1-1.3,2.6l-2.4,2.6c-.3.3-2.9,1.7-3.1,1.8l-4.2.3c-3.5.2-8.5-2.4-10.4-5.6l-1.5-2.6c-.2-.3-.9-2.1-.9-2.5l.4-7.7c0-1,2.7-5.3,5.4-6.7l2.8-1.5c.3-.2,2.1-.7,2.5-.7l6.1.7c.7,0,2.5,1.5,3,2.1l.8,1.5c.4,2-1.4,3.5-5.5,4.3-4.6,2.9-3.2,8.3,2.7,6.6s23.2-8.9,26.1-11,1.4-3.8-.3-5.8l.8-2.1c1.3,0,2.8,1.2,3.4,2.7l.8,2.1.9,1.9c.3.5.8,1.4.7,1.8l-.7,3.3c0,.4.9,1.8,1,2.1l.9,2.2c.5,1.3-.4,3.3-1.5,3.3l-1.8.6Z"/>
    <path class="st15" d="M279.3,80.3c4.8-3.1,4.6,3.4,3.9,6.8,0,.2,0,.5,0,.6-.9,1.2-1.8,2.4-3.3,3h-1.7c-7.6,1.5-15.4,2.5-23.2,3.2h-.8c-1.3.2-8.8,1.5-9.2,1.2-4.3-2.5-3.3-10.6,1.4-13.3,10.3-.9,20.7-1.6,31.1-1.6h2Z"/>
    <path class="st20" d="M309,164.1h.9s.9,1.1.9,1.1l1.3,1.7.8,2.1c.3.9-.7,4-3.4,5.2l-3.6,1.5-3.5,1.5-4.3,1.8-2.8,1.2-5,2.1-4.3,1.8-2.2.9c-1.1.5-4,.9-5,.3-2.6-1.4-4-5-2.4-7.8s2.3-2.5,3.2-2.9l5.1-2c.8-.3,1.3-.5,1.2-.5l1.7-.6,3.7-1.3,2-.8,6.6-2.7c1.4-3.7,5.5-4.2,8.9-2.5Z"/>
    <path class="st19" d="M289.2,123.9c2.8-.6,5.2.5,6.2,2.7s-.7,6.5-2.5,7l-3,.9-4.8,1.3-3,.8-2.6.7-4.6,1.2-3.4.9-2.5.7-7.3,1.5c-.4,0-2.2-.8-2.4-1.1l-1.5-2.5c-1.2-1.9,0-6.9,5.3-8l7.7-1.6,3.2-.7,2.2-.5,3.3-.8,3.4-.8,1.3-.6,1.1-.2.8-.2,1.5-.3,1.7-.4Z"/>
    <path class="st13" d="M362.1,228.1c0,.2,0,.5,0,.7,1.6,4.8.7,7.4-2.6,8-3.6,3.8-7.4,6.8-11.4,8.9-1.5,5.2-9.8,13.1-15.5,7.6s1.1-15.1,7.7-14.5l1.5-1.3,5.9-5.1,2.6-2.3c.2-.2.9-1.2.9-1.2-1.1-5.9,8.1-4.5,10.9-.8Z"/>
    <path class="st18" d="M33.4,137c4.6-.5,9.2-.5,13.7,0,2.6-1.1,4.7-1.1,6.1,0,6.6-.8,14-.8,20.5,0,2.7.9,1.7,2-.7,3-11-.4-21.9-.1-32.7.8,1.1,1.6.9,2.8-.5,3.5,3.7,1.2-3.5,1.7-5.6,1.4s-.9-.9,0-.1,0,.4,0,.8l-.9.9-3,3-1.2.9c.1-.3.4-1.2.7-1.4l1.5-1.5,2.1-2.2-2.7-1.7-2.6-1.6-1.8-1.1c-.3-.2-1.4-1.6-1.3-1.9l1.1-2.7c.1-.3,1.3-.7,1.6-.7l2.1.2-1.2-1.3-1.9-2.1c-.2-.3-.5-1.3-.6-1.6l1.2.9,3.1,3.5,2.9.9Z"/>
    <path class="st18" d="M362.1,228.1l-1.4-.8-2-1.1c-.6-.3-2.7-.5-3.3,0l-3.6,2.3-.7.4c0-.2-.3-1.7-.5-2l-5.7-5.7-7.3-7.2-3.3-3.6c-.4-.4-2.1-.3-2.6,0l-3,2-3.1,2-1.9,1.1-2.6,1.5-1.9,1.1c-.4.2-1.9.7-1.9,1.1l-.5,4.4c0,.1-.3.4-.4.5-3.3.4-2.9-3.9-.7-5.6l-.3-2.2,15.9-10.1c3.5-2.5,3.6-4.5.3-6-2.2.4-4,.3-5.4-.3h-1.6c0,0-1.2-2.3-1.2-2.3l-2.2-2.9-1.4-1.6-.8-1.4,1.6.9,1.2-1.1,1.5-1.5c.7-.7,2.9.2,4.3,2.2l2.1,3.1c.3-.7.1-.2-.7,1.4l2.3.2s1.6.7,1.8,1l3.6,3.2c.4.3.6,2.6.3,3l-2.3,2.9c-.1.2-.2,1.3,0,1.1l2.4-1.5c.2-.1,1.3-.4,1.4-.2l1.6,1.5c.9.8.7,3.6,0,4.1l-2.1,1.5c-.1,0,.8.7,1.3,1.2l2.1,1.9,1.5,1.6,2.5,2.7c.3.3,1.1-.9,1.4-1.1l1.9-1.2c1.8-1.1,4-.9,5,.7l1.7,2.6c.3.5,1.4.9,3.3,1.8l-3.5.6c-.3-.2,1,.7,1.3.9l2.9.4c1.1.1,2.1,1.2,2.5,2.8Z"/>
    <path class="st18" d="M19.8,373.7c0,.1-.1.5-.1.8l.2,3.4c0,.7-2,.8-2.6,1l-2.1.5,3.9.5c.3,0,1.5.8,1.1,1.2l-2.2-.3-2.6-.4-1.5-.6c-.2,0-.6-.1-.7,0l.6-1.5c0-.1-.8-1.2-.8-1.6l.2-4,.2-3.8c0-.6,1.3-1.9,1.8-2.3s1.6,4.8,1.7,4.2l.2-3-.9-2.3v-7.6s0-1.4,0-1.4c.4-.1.7.9.7,1.3l.5,5.9.4,2.9.4,3.1c.4,2.8,1.7,3,1.6,3.8Z"/>
    <path class="st18" d="M394.1,265.1l-1.2-.8-3.3-3.3-3.2,3.3-1.6,1.6c-1.4,1.3-2,.8-1.1-1l-1-2c6.5-6.2,7-9.8,1.5-10.6-1.4,1.3-2.8,1.5-4.1.6l-1-.9-2.3-2.8-.8-1,1.8-1.5,1.6-1.3,2-1c.8-.4,2.6.1,3.6,1.6l1.1,1.8c-1,.4-2.6.7-2.1.9l2.4.9c2.5,1,2.7,2.1,4.1,3.3.9-.2,1.7-.5,1.8-.4l1,2.5c.2.4.8,1,1.1,1.3.6.6.9,3.8,0,3.9l-2.7.2h-1.5c0,0,2.4,2.1,2.4,2.1.6.5,1.2,1.9,1.4,2.6Z"/>
    <polygon class="st18" points="116.3 48.1 115.9 48.9 89.1 48.9 88.1 49.2 89 47.9 114.2 48 116.3 48.1"/>
    <path class="st18" d="M144.3,47.1c.3.2-1.3.7-1.6.7l-22.3.2h-1.3s.2-1.1.2-1.1h23.8s1.1.2,1.1.2Z"/>
    <path class="st18" d="M170.3,46.3c-.2.1-.9.6-1,.6h-20.9c0,.1-2.3.2-2.3.2l.8-1.2h22.2s1.2.4,1.2.4Z"/>
    <path class="st18" d="M309,164.1h-2.8c-.4,0-1.7.7-2.1.8l-2.9,1.2-1.2.5.6-1.2.2-2-.7-1.7,1.5,1.1c1-1,1.8-1.2,3.3-.7l2.3.8c.4.1,1.5-.2,1.9-.4l-.5-.5c.2.1-1.8-.8-1.4-.7l2,.2c.2,0,.2.2.4.4l1.4.6-2.1,1.8Z"/>
    <path class="st18" d="M56.3,50.2c-.2.2-.7.6-.7.6l-13.9.2-2.4,1c-.1,0-.8,0-1,0,1.3-1.3,3.9-2,3.5-2l13.2-.2,1.4.3Z"/>
    <path class="st18" d="M278.1,90.8c.4.2-.7,1-1,1l-4.6.4c-.5.2-2.1.6-2.5.6l-6.5.3c-.6.3-2.1.8-2.6.8h-6.1c-.2-.4,1-.9,1.3-.9l4.9-.2,2.5-.6,8.1-.7,2.5-.6,3.9-.2Z"/>
    <path class="st18" d="M261,11.1c-.3.2-.7-1-.7-1.3l-.3-2.9c.5-.3,1,1.5,1,1.9v2.2Z"/>
    <path class="st18" d="M265,36.1c-.2.3-.7-.9-.7-1.2l-.3-3c.2-.4,1.1.7,1.1,1.1v3.1Z"/>
    <path class="st18" d="M208.3,31.2c0-.5,0-.8.1-.9l2-2.1c.1-.1.4-.2.8-.2l-.9,1.1-1.5,1.7-.6.4Z"/>
    <path class="st18" d="M279.9,90.7l.4-.5,1.6-1.5,1.2-1-.6,1.5c0,.2-1,1.1-1.1,1.2-.3.1-1.2.3-1.5.3Z"/>
    <polygon class="st18" points="319.1 191.2 317.9 190.2 316.8 189.1 316.1 187.9 316.8 188 319 190.3 319.1 191.2"/>
    <path class="st18" d="M316,187.2l-1.2-1c-.2-.2-.7-.9-.8-1.2,0-.3,1.1.5,1.4.8s.6,1.1.6,1.5Z"/>
    <path class="st25" d="M205.3,55.9s.3,1.1.3,1.3l.5,4.6.6,5.5.8,7.5.5,4.1.5,4.7,1,9.2.6,6.1.5,5.5c.2,2.2.1,6-.2,8.3l-.9,5.4-.9,3.2-2,5.2-1.9,3.1-2.3,2.7-4.6,4.2c-.4.4-2.1,1.3-2.7,1.5l-2.1,1-2,1-4,1.3-8.3,1.3-2.6.2h-5.1c0,.1-9,.3-9,.3l-20.4.5-4.6.2-13,.4-24,.6h-5c0,.1-9,.4-9,.4l-14.6.4-10.4.3-11,.3-10,.2h-4c0,0-1.8,0-1.8,0l-1.4-1.2,6.1-.2c.2,0,1.1-1,.7-.6l-1.5-2.8c0,0,.5-.7.7-1.1l-2.9-.5-2.4-.4,5.9-.8,2.4-.7h31.8s-.2-1-.2-1c.6-.3,1.3-.7,2.2-1,4-.5,8.1-.8,12.5-1l.6,1c.9-.7,3.1-.8,4,0,.3-.5.6-1,1.1-1,9.5-.5,19.8-.4,28.9.1h2s2.9,0,2.9,0l16-.4,15-.4,19.8-.4,5-1,3.1-.9c.5-.2,2.2-1,2.7-1.4l2.4-1.7c.7-.5,2.4-2.2,2.9-2.9l2.1-3,1.5-2.9c2.4-4.6,2.8-11.6,2.4-17l-.7-8.2-.5-6v-1.8s.1-1.1.1-1.1l.4-5.2c.2.2.8,1,.8,1.2v5.9c0,.2.8.8,1,1v-8.8c0-2.4-2-4.7-.7-4.9l3.5-.5c.5,0,.4-2.2.4-2.7v-3.1c0-.5-.4-2-.5-2.5l-.8-2.6-3.7.2v-6.9c-.1,0-1-2.2-1-2.2l.3-4.8c0-1.1,3.4,2.3,3.8,0,.6-.5,1.4-1.2.9-.8v5.6c0,.3,1.2,1.1,1.2,1Z"/>
    <path class="st21" d="M311.4,208.9v2.3c-11.9,4.2-8.2,14.7,2.4,6.4l2,1.1.4,3.3.3,2.3-1,2.1c-1,2.1-3.2,4.3-5,4.9l-3.1,1.1c-1.1.4-4,.2-5.1-.2l-3.2-1c-.3-.1-1.7-1-2-1.2l-2.9-2.9c-.2-.2-1.1-1.7-1.2-2l-1-2.9c-1.3-3.9.4-8.4,2.6-11.9l3.3-2.3c3.2-2.3,9.1-2.4,12.2,0l1.2,1Z"/>
    <path class="st22" d="M383.7,264.8c.2,2.4-3.5,5.8-5.9,7l-.9,1-3.9,4.2c-1,1-4.7.9-6-.1s-2.6-5.2-1.6-6.5l1.8-2.3,2.2-2.7,1.1-1.3,3.6-4.1,1.8-2.2,2.8-3.3,1.4-1.7,1.5-1.3c.3-.3,1.6-1,2-1.2,2.3-.7,5.9,1.6,6.5,3.7s-.6,3.7-1.3,4.5l-2.8,3.4-1.4,1.7-1,1.2Z"/>
    <path class="st5" d="M94.1,133.9c1.3,1.4.8,1.7-1,.9-1,.4-2.3.8-4,1.1h-13.1c-7.5.4-15.1.7-22.8,1h-6.1c-.9-.3-.9-.6,0-1l2.4.3,1.9-1.2h33.7s1.3-1,1.3-1h7.7Z"/>
    <path class="st0" d="M123.1,135h-2.2s-6.7-.2-6.7-.2c-.2,0-1.1.7-1.5,1h-19.7c-.9-.3-.9-.6,0-1.1.4,0,1.1-.5,1-.9h28.8s.2,1.1.2,1.1Z"/>
    <polygon class="st17" points="24.1 110.9 24.1 69.9 25.1 70.1 25.1 110 24.1 110.9"/>
    <path class="st25" d="M198,68.9v-1.9s-.8-1.6-.8-1.6v-8.5c0,0-.1-6.6-.1-6.6h1.1c0,0,0,6.5,0,6.5l.8,2.6.2,9.1c0,.2-1.1.5-1.1.4Z"/>
    <polygon class="st9" points="47.1 135.9 47.1 136.9 41.9 136.8 39.7 137.8 34.4 137.9 33.4 137 33.5 135.9 47.1 135.9"/>
    <path class="st25" d="M199.1,79.9v-2.1c0,0,0-1.6,0-1.6v-3.5c0-.4.7-1.8.9-2l.3,7.9c0,.3-1,1.7-1.1,1.3Z"/>
    <path class="st26" d="M315.8,218.6l-3,1.9-2.7,1.7c-2.5,1.5-6.6.4-7.7-2.4s.1-5.9,3-7.5l2.6-1.5,1.9-1.1,1.5-.8,3-1.7,3.7-2.2,2.5-1.5,1.8-1.1,2.5-1.6,1.3-.8,1.8-1.2c1.6-1,4-.8,5.1,0l2.7,2.2c.4.3.4,2.5.1,2.9l-2.1,2.9c-.2.2-1.3,1.1-1.6,1.3l-4.2,2.6-2.6,1.6-1.7,1.1-3.7,2.4-3,2-1.3.8Z"/>
    <path class="st11" d="M282.9,125.7l1.3-.6-1.3.6Z"/>
    <path class="st13" d="M76,135.9c0,.2-.4,1-.4,1h-1.9s-20.5,0-20.5,0c-.9,0,1-1,1.5-1h21.3Z"/>
    <path class="st13" d="M93.1,134.8v1.1s-4,0-4,0c0-.4,0-.8.2-.8l3.8-.3Z"/>
    <g>
      <path class="st11" d="M271.7,69.2l.2,1.8v.9c.7.9.9,2,.9,3.3,0,.5-.1,1.3.2,1.6.5.5.5,3,.3,3.1-.7.7-18.2,1.6-19.2,1.3-5.3-4.2-10.5-5.5-16.1-.8-5.8,4.8-3.9,18,3.9,19.7-.2.7-.3,1.3-.1,1.9s6.4.6,7.5.3l1.4-.6,1.3-.6c1.6-1.4,2.1-2.5,1.5-3.6l1.4.5c1.6-2.1,4-3.1,7.1-3.1h4c.9-.3,1.9-.6,3-1h4c1.4-.6,3.8-.8,4.9.2v.9c0,0,1,3.2,1,3.2v.9s.9,2.2.9,2.2v1.7s1.1,2.2,1.1,2.2v.8c2.3-.2,2.9,2.2,1.8,7.3l.2.7,1.1,3.1v.8c.5.8.8,1.9.9,3.1v1.8c-.1,0,0,.8,0,.8-12.6,2.9-18.9,4.3-18.9,4.3-8.2-6-17.7,0-17.2,9.9s16.1,14.8,20.5,3.8c3.1-1.2,19.8-6.6,21.8-5.9s2.6,3.3.8,4.3v.7c0,0,1,2.4,1,2.4,0,.1-.2.5-.1.7l1.2,1.9c2.5.3,3,2.2,1.6,5.7l.2.6,1.1,2.2c0,.2,0,.5,0,.7l2,4.1.3,1.6.8,1.1c3.6,1.3,3.6,2.9,0,4.9l-.2,2.3c-8,3.1-12,4.7-12,4.7l-1.8-1.5c-1.4.5-2.8,0-4.3-1.7-18.9-4.3-20,24.6-.9,22.5l1.3,1.9,2.5-.5c3.2,4.8,7,9.4,11.3,13.8l-1.3,2,1.2,1.9c-8.7,12.9,10.6,26.7,18.4,12.3h2.3c0,0,.1-5.3.1-5.3.4-.9,16.7-10.6,17.7-10.6s5.8,4.3,3.7,5.5l7.2,7.2c2.6-1.3,9.7,5.7,6,7.9.7.5,1,1.2,1,2s-8.7,8-9.8,8.6l-2.2-.8-9.4.9c-15.3,10.3,2.2,28.7,13.4,15.1.3-4.6,1.9-7.3,4.8-8.1,1-1.7,10.7-11,12.1-11.3,2-.4,6.7,3,4.7,5.3l.9.2,4.3,3.9.9.2c1.4.6,2.3,1.8,3.1,3,.2.2.8.2,1,0,2.3-1.9,5.7,2.4,4.2,4.7.6.5,1.4,1.3,1.1,1.8-.7,1.4-4.3,5.3-5.6,6.7-1.5,2.6-3.2,3.6-5.1,2.8-2.1,1.5-4.5,2.1-7.4,1.7-19.3,14.8,14.3,31.4,14.9,6.9l1.1-.7c1.2-2,3.5-5,5.7-6.1.5-2,2.1-4.1,4.6-6.5,1.4,2,2.9,3.9,4.6,5.7l.5,1.5.9,2,.6,1.3c1.1-.6,1.8.4,1.9,2.9,3.1,1.1,4.5,2.4,4.1,4.1.1,0,.6,0,.7,0l2.3,2.1,1.3.5,1.4.5,4.3,2.9,1.3.6,2.7,1.3,2.7,1.3c2.1.5,4.1.7,6.1.6l.3,2.2,1.2.5,2,.9c.3.1,1.3.4,1.6.4l2.1,1h.9s2.1,1.1,2.1,1.1l.8.3c.9.3,2.3.6,3,.7.9.3,1.6.6,2.2,1.1l.7.2c3.2-.6,8.7-1.5,9.2,2.7l1.8.3,2.3.9h1.7s2.3.8,2.3.8l1,.2h1.8c1.1-.2,1.5,0,2.2.9h2.8s4.2,1,4.2,1h2c0,0,1.7.1,1.7.1l4.2.9h4.1c0,0,1.8,0,1.8,0,3.5.2,6.9.5,10.1.9h11c0,.1,4.2,0,4.2,0l.7-2c4.4,1.5,8.9,1.9,13.3,1.1h.9s11,0,11,0h1.8c3.7.2,7.3,0,10.9-.6l1.1,2.1,1.9.2,2.2,1h.9s2.1,1,2.1,1h.9c0,0,2.1,1.1,2.1,1.1l1.4.5,1.4.5,2.3,1.8.8.2,2.1,2,1.2.8c0,0,.4,0,.8-.1,3.8,2.6,7.1,5.7,9.9,9.2-1.2,2.1-.2,3.5,1.1,5.3l.4,1.4.4,1.4c.9,1.1,1.7,2.4,2.2,4.1v.7c.4,1.7,1.3,2.3,2.6,2l.3,7.5c0,.2,0,.5,0,.7.7,1.3.9,2.7.7,4.2l.3,1.7c.8,1.5,1.1,3.3.8,5.2l.2,1h.7c-.2,3.2,0,6.2.4,9.2.7,1.2,1,7.3.5,8.6-1.4,4.5-58.6,20.8-66.9,22.8-90.5,21.4-180.6,15.5-270.8-3.1-61.8-7.9-123.8-13.1-186.2-15.6l-35.3-3.5-.9-2.1c-3.1.2-5.9-.1-8.3-.8-.1,2.8-1.5,2.7-2.3,0-2.7,1.1-4.5-2.1-2.3-3.6l-1.4-13.4v-1.8c-.6-5.8-.9-11.9-.8-18.1l.2-1.9v-7.1s-.2-1.8-.2-1.8c0-5.8.2-11.5.8-17v-.8c.2-4.1.6-8.2,1.2-12.3v-1.9c0-3.3.3-6.3.9-9.1v-2.8c.2-3.8.5-7.5.9-11.1v-.8c.1-4.3.5-8.4,1.2-12.3v-1.8c0-3.7.3-7.1,1-10.2v-1.8c0-3.7.3-7.1,1-10.2v-1.8c0-4.3.3-8.4,1.1-12.2v-1.8c0-3.9.3-7.6.9-11.2l.4-2-.3-1.8c-.1-4,.2-7.7,1-11.2v-1.8c0-4.7.3-9.1,1-13.2v-1.8c0-5.5.3-10.8.8-16v-.8c.2-1.5.6-3,1-4.4l.5-1.3.5-1.5c1.5-2,3.2-3.7,5.1-4.8l.2-.6c2.8.4,4.6,0,5.6-1.4l138.6-3.7c22.1-2.4,30.3-14.3,29.9-36-1.5-13.8-2.7-27.4-3.5-40.8-1.5-1.4-2.5-6.7.2-7.8-.6-1.9-.8-4-.6-6.3-2.1-.6-1.2-2.4.2-3.6s30.5-1.3,35.4-.9,22.4,2.8,23.4,5.4,0,1-.3,1.6l6.1,6.3c.5,1.4,1.3,1.9,2.4,1.5.5,3.1.5,6.2-.1,9.3Z"/>
      <g>
        <path class="st18" d="M451,297.9l-5.5-1.5-2.2-.7-1.5-.5,1.9-.6,1.5-1.7,2.6-.5c1.2-.2,2.8-.5,4.1.9l2.5,2.6c1.3,1.4-2,.4-3.3,1.9Z"/>
        <path class="st18" d="M550,304.7l-10.9-1.2-1.1-.4h2.2c0-.1,3.8-.4,3.8-.4,0,0,3-3.3,5.1-2.7l3.1.8c.5.1,1.8,1.5,2.3,2.1s-1.8.8-2.2.9l-2.1.8Z"/>
        <path class="st18" d="M581,328.2l-1.4-1-.7-2.3-1.2-1.8-2.9-3.8-3.7-4.3-1-1.4,1.8.8c.3-.2.6-.4.8-.2l1.4,1.6,2,1.2,2.1,1c1.1.5,3.1,2.4,3.6,3.6s-2.1,2.6-2.3,2.6l1.1,2.2.6,1.7Z"/>
        <path class="st18" d="M524.3,303.1l-.3.8h-7.9c0,0-4,.1-4,.1h-1.8c.3-.3-.9-1-1.2-1.1l-2.9-.3c-.9,0,.3-2.7,2.8-2.7h3.8c.6,0,1.4,2.9,3.4,2.9l6.7.2h1.4Z"/>
        <path class="st18" d="M587.1,345.2l-.7-1.4-.7-2.6-.7-2.4-.9-3.1,1.8,2.2v-2.4s2.5,1,2.5,1c.4.2.4,1.6.3,2l-.6,2.4-.5,2-.6,2.3Z"/>
        <path class="st18" d="M16.2,354.9l-1.1-.2v-16.9s.3-1.1.3-1.1c.2.1.7.6.7.7v15.2c.1,0,.1,2.2.1,2.2Z"/>
        <path class="st18" d="M15.4,326.1l-.3-1.1v-15.3s1-.7,1-.7v14.7c-.1.7-.5,2.6-.8,2.4Z"/>
        <path class="st18" d="M26.4,175.1l-.3-1.1v-14.9s1.1,0,1.1,0v13.8c-.1.5-.5,2.4-.8,2.2Z"/>
        <path class="st18" d="M425.3,289l-2.4-.9-2-.9-2-1h1.9c.4,0,1.7.9,1.8.4.2-.7,1.6-2.7,2.1-2.3l2.5,1.8c.3.2-.8,1.6-1.1,1.8l-.9,1.2Z"/>
        <polygon class="st18" points="25.4 190.1 25.1 188 25.1 177.6 26.4 176.9 26.1 177.8 26.2 189 25.4 190.1"/>
        <polygon class="st18" points="22.4 232.1 22.1 230 22.1 220.6 23.4 219.9 23.1 220.8 23.2 231 22.4 232.1"/>
        <polygon class="st18" points="19.2 270.2 19.2 269 19.1 258.1 20.3 257.9 20.1 259.9 20.1 269.9 19.2 270.2"/>
        <path class="st18" d="M16.2,308.2v-1.5s0-9.6,0-9.6c0-.4,1.2-1.9,1.2-1.2l-.2.9v11s-.9.4-.9.4Z"/>
        <polygon class="st18" points="24.4 203.1 24.1 202 24.1 192.6 25.3 191.9 25.1 193.9 25.2 202.1 24.4 203.1"/>
        <polygon class="st18" points="21.4 244.1 21.1 242 21.1 234 22.3 233.9 22.1 235.9 22.2 243.1 21.4 244.1"/>
        <polygon class="st18" points="20.4 256.1 20.1 254 20.1 246 21.3 245.9 21.1 247.9 21.2 255.1 20.4 256.1"/>
        <path class="st18" d="M17.3,294l-.3-2.1v-6.9s1.2-.1,1.2-.1v2.1c0,0-.2,5.7-.2,5.7,0,.3-.5,1.4-.7,1.3Z"/>
        <path class="st18" d="M587.6,350.2l-.4-2.4-.3-1.9c.5-.4,1.1,1.4,1.1,1.9l-.4,2.4Z"/>
        <path class="st18" d="M479.1,303h-2.2s-2.1-.9-2.1-.9h2.3c.5-.2,2.2.4,1.9.9Z"/>
        <path class="st18" d="M471.1,302l-3-.2c-.3,0-1.4-.6-1.3-.8h2.2c.5,0,2.3.5,2,1Z"/>
        <path class="st18" d="M27.2,158.2v-3.3c0-.3,1-1.2,1-1.1l-.2,3c0,.3-.5,1.5-.8,1.3Z"/>
        <path class="st18" d="M554.1,305.9h-1.9s-.2-1-.2-1l2,.2c.1,0,.2.3.2.8Z"/>
        <path class="st18" d="M557.1,307h-.9c0-.1-1.2-1-1.2-1,.2,0,1,0,1.1,0l.9,1Z"/>
        <path class="st18" d="M560.1,308h-1.2c0,.1-.9-1-.9-1h2c.2.1.1.6.1,1Z"/>
        <path class="st18" d="M584.1,335.1l-1-1.2-.9-2-.3-.9c.6,0,.9,0,1,.1l.9,2.1.4,1.8Z"/>
        <path class="st18" d="M565.1,310.8l-1.3-.4-1-1.4c.3.1,1.2.4,1.4.6s1.1,1.2.9,1.1Z"/>
        <g>
          <path class="st18" d="M292,140.1l-.8-1.3c-.2-.3-1-1.7-1.4-1.6l-2.7.5-2.7.7-2.3.6-3.1.8-2.3.6-3.6.9c-.4,0-1.6.6-1.7.9l-1.5,3c-1,2-5,5-7.5,5.1h-4.7c-1.4.2-4.3-1.3-5.7-2.2-6.5-4.4-6-16-3.3-18.6l3.5-3.4c.4-.4,2.1-1.3,2.7-1.5l3.3-.9c1.5-.4,4.7,0,6.3,1l2.6,1.7c.6.4,2.3.7,3,.5l3.9-1.1,4.1-1.1,4.1-.6,3-.3.3,1.1c-.1.9-.5,1-1.1.2l-1.3.6-.5,2.2-19.3,4.4c-3.2.4-5.3,5.2-2.2,7.1s30.1-6.6,31.5-7.7c2.1-1.8,1.7-5.9-1.6-5.9l-1.6-1.8c.4-.1-.8-.6-1.4-.8s-1.1-1.5-1.4-2.3,1.7-.8,2.1-.7l2.4.7,2.5.7,3.8.4c.5,0,2.3.9,2.3,1.4l-.2,3-.5,3.7-.5,3.1c-.1.6-1.1,2.1-1.4,2.6l-1.2,1.9c-.2.4-.6,2-1,2l-2.8.5Z"/>
          <path class="st18" d="M273.1,76.8l1,.7c.3.2-.4,2.1-.8,2s1.2.2,1.7.3l2.2.5-.3.6-10.4.2c-.6.3-1.9.8-2.3.8h-3.1c0,.1-5.4.6-5.4.6l-8.1.9c-1.8.2-4.6,4.8-3.6,6.6l2.2,4h7.9c0,0-.5,1-.5,1h-3.3c0,0-3.8-.1-3.8-.1l-2,2.4-.4,3.4-2.3,1,5.4.3,2.3.3c.2,0-1,.5-1.4.5l-4.1.4-2.8-1.4-2.5-.6-4.4-5.3-1.2-2.4.2-9.8,2-2.8,1.7-2.2,3.6-2.4,3.3-.8c.5-.1,2.2-.2,2.7,0l4.6,1.1,2.6,2c.2.2,1.9,1.6,2.5,1.6l7.8-.2c.4,0,2-.6,2.5-.7l6.6-.3v-2Z"/>
          <path class="st18" d="M365.8,240.8l-.9-.8-3.2-2.8c-.3-.3-1.6.3-2,.7l-6.7,6.1-2.9,2.1-1.2.7c-1.6,1.2-2.1.6-1-1l.9-.9,4.2-3.8,5.9-5.3c.8-.8,2.9-2.5,2.9-3.6v-3.3c.2-.4,1.1.8,1.1,1.1v3.6s1.7-2.5,1.7-2.5c-.2-1.9-.2-1.8,0,.2l1.5,1.7,1.8,2c1.1,1.3.9,4-.1,4.5l-2.1,1.4Z"/>
          <path class="st18" d="M402,276.9l-5.2-3.4c-.1,0-.2-1.8-.2-2l-.6-1.6,1.4-1.8c.2-.4.8,1.2.9,1.7l1,3.1c.2.5,2.3,0,2.8.2l2,1.1c.7.4-.2,1.4-2,2.8Z"/>
          <path class="st18" d="M295.7,151.4l-.6-1.5-1.1-2.9-1.1-3.1,2,1.3c-.6.9-.5.7.3-.4l2.3.7c.6.2,2.1,1.9,1.8,2.4l-1.4,2c-.2.2-1.5-.9-1.5-.6l-.6,2.2Z"/>
          <path class="st18" d="M282.8,113.2c0,0-.6-1.1-.6-1.3l-.6-3.2-.5-2.7,1.9-.5c.3,0,1.2-.2,1.4,0l1.5,1.9c.6.8-2.6,1.6-2.7,3.6l-.3,2.3Z"/>
          <polygon class="st18" points="23.4 218.1 23.1 216 23.1 207.1 24.3 206.9 24.1 207.8 24.1 217.8 23.4 218.1"/>
          <path class="st18" d="M18.3,282.1v-1.4s-.2-8.6-.2-8.6c0-.3,1.2-1.8,1.1-1.1v8.8c-.1.5-.5,2.4-.9,2.3Z"/>
          <path class="st18" d="M495.1,304h-8.7c-.3-.1-1.6-.7-1.4-.9h1.1s8.9-.3,8.9-.3v1.1Z"/>
          <path class="st18" d="M278,94h-4.9c-.3-.3.7-1,1-1.1h3.8c0-.1,0,1.1,0,1.1Z"/>
          <path class="st18" d="M262.1,94.9v1c-.1,0-4.3-.2-4.3-.2l-4.4,4.4c-.3.3-1,.8-1.2.9v-.8c0,0,2-1.8,2-1.8l-1-.7c-1.5-1.5-.7-2.4.8-.8l.7,1,3.2-3.1,4.3.2Z"/>
          <path class="st18" d="M588.6,357.1l-.3-2.2-.4-3c.5-.3,1.2,1.4,1.2,1.9l-.5,3.3Z"/>
          <path class="st18" d="M279.1,98.1c-.3.3-.7-.8-.7-1.3l-.2-1.9c.2-.4,1,.7,1,1v2.2Z"/>
          <path class="st18" d="M285,121.1c-.2.2-.7-.9-.7-1.2l-.2-2,1.3.6-.4,2.5Z"/>
          <path class="st18" d="M284.1,117.1c-.4.1-.5-.4-.7-1.3l-.4-1.9c.2-.4,1,.7,1,1v2.2Z"/>
          <path class="st18" d="M272.9,75.2l-.5-1.3-.3-2c.2-.3,1,.7,1,1l-.2,2.3Z"/>
          <polygon class="st18" points="269.1 93.9 268.5 95.1 266.1 94.9 266.2 93.9 269.1 93.9"/>
          <path class="st18" d="M455.1,299.1c-.1,0-.6,0-.7-.1l-1.6-.8c.2,0,1.2-.3,1.4-.2.3.2,1.3.9,1,1.1Z"/>
          <path class="st18" d="M432.1,291.9h-1.9s-.1-1-.1-1l1.9.3c.1,0,.2.3.2.7Z"/>
          <polygon class="st18" points="435 293.1 433.1 292.8 433 291.9 435.1 292 435 293.1"/>
          <path class="st18" d="M441.1,295.1l-1.8-.5c-.1,0-.3-.3-.4-.6h2.2c0,.1,0,1.1,0,1.1Z"/>
          <path class="st18" d="M412.1,282.9l-1.4-.7-1.8-1-1.2-1.2,1.6.6c1.2.4,2.1.8,2.7,2.3Z"/>
          <path class="st18" d="M464.1,301c-.1,0-.6,0-.8-.1l-1.5-.8,1.6-.6.7,1.5Z"/>
          <path class="st18" d="M299,159.1l-.9-1.2c-.2-.3-.6-1.1-.7-1.3l-.4-1.7h.8c0,.1,1.1,2.4,1.1,2.4v1.8Z"/>
          <path class="st18" d="M293,143.2c-.4-.1-.6-.2-.7-.4l-.3-2c.4,0,.8.1.8.2v2.1Z"/>
          <path class="st18" d="M281,105.1l-.8-1.3-.2-.9c.6,0,.9,0,.9.2v2Z"/>
          <path class="st18" d="M279.9,101.2l-.7-1.4c0-.2-.2-.7-.2-.8l1,.9c0,.2,0,1.1,0,1.3Z"/>
          <polygon class="st18" points="459.1 299.9 457.9 300.1 456.9 299.1 458.6 298.9 459.1 299.9"/>
          <path class="st18" d="M297,154.2l-.8-1.4-.3-.8c.3-.3.9.6,1.1.9s0,1.2,0,1.3Z"/>
          <path class="st18" d="M405.1,279c-.3-.1-1-.6-1.2-.8l-1.1-1.3c.4.1,1.4,0,2.3,2.1Z"/>
          <path class="st18" d="M568,313l-1.1-.9-1-1.1c1.1.2,1.7.6,2.1,2Z"/>
          <path class="st18" d="M375.1,248.1l-1.1-1-1-.9-1-1.1c.2,0,1.4-.1,2.5,1.6l.6,1.4Z"/>
          <path class="st18" d="M371.1,244.9c-.1,0-.5-.2-.6-.2l-2.6-2.4-1.1-1.2c.3,0,1.3.4,1.6.6l2.6,2.6c0,0,.2.3.1.7Z"/>
          <path class="st27" d="M340.2,238.8l-1.3,1-3.9,3.2c-2.7,2.2-3.1,4-2.5,7.2s5,3.8,6.4,2.8l4-2.9,2.3-2,1.6-1.4,1.1-1,1,1c-.6.3-1.8,1.5-1.9,2.2l-.5,5.3c0,.4-.7,1.9-1,2.2l-3.1,3c-.7.7-3.2,1.9-4.2,2h-6.5c-.3,0-3.8-1.5-5.2-3.1l-2.3-2.6c-2-2.3-2.3-10.6.8-13.7l2.9-2.9c.3-.3,1.8-1.3,2.2-1.3l8.4-.3c.3,0,1.6,1.2,1.3,1.3Z"/>
          <path class="st24" d="M370.6,264.1c.8.3,1.2.9,1.2,1.7-8.6,6.8-3.3,15.4,3.9,5.5l2.2.5c.5-.5.9-.5,1.3,0l.4,2.1c.3,1.7.2,5.9-1,7.1l-4.3,4.7-2.5,1-6.5.4-3.4-1.3-3.7-2.9c-.6-.5-2.3-3.4-2.5-4.9l-.4-5.1.8-2.2.8-2.3,3.4-3.3c.4-.4,2.2-1.5,2.8-1.5h4.8s2.6.4,2.6.4Z"/>
          <polygon class="st23" points="384.9 265.8 384.4 267 380.4 271.2 379.1 271.9 377.9 271.9 379.3 270.1 382.1 266.8 383.7 264.8 384.9 265.8"/>
          <polygon class="st18" points="30.4 374.6 29.2 374.9 22.2 374.9 22.1 373.7 23.3 373.8 29 374 30.4 374.6"/>
          <g>
            <polygon class="st3" points="91.9 370.6 88.9 370.8 79 369.5 76.3 368.7 74.1 367.8 71.3 366.6 67.4 364.5 64.5 362.5 60.8 359.4 58.7 357.3 55.5 353.5 53.5 350.6 51 345.9 49.8 343.1 48.4 337.8 47.3 326.9 47.6 322.6 48.3 318.9 49.1 316 50.1 312.9 51 310.8 52.1 308.9 53.1 306.8 55 303.8 58.6 299.4 61.7 296.5 65.5 293.3 69.2 291.1 71.2 290.1 74.1 289 77 287.8 80.3 287.1 84.5 286.3 92.7 286.2 96.1 286.8 99.5 287.6 103.1 288.7 106.1 289.9 108.2 290.8 110.8 292.3 113.8 294.3 117.5 297.5 119.6 299.6 123.9 305 125.2 307 127.9 313.1 128.8 316.2 129.8 319.3 130.1 322 130.1 333.9 129.3 337.8 128.7 340.5 127.9 342.7 125.1 348.9 123.6 351.4 121 354.8 119.3 357.1 117.3 359.2 114 361.7 111 363.8 109.1 365.1 107.3 366.1 103.9 367.7 100.2 369 91.9 370.6"/>
            <path class="st10" d="M82.1,366.3l-3.2-1.1-3.1-.8-2-1-1.9-1-2.6-1.5-4.2-3-4.2-3.7-1.8-2.1-2.6-3.6-3-6-.7-2.3-.6-2.2-.9-4,.2-12.1,1.4-4.9.7-2.3,1.5-3.6,2-3.1,2.4-3.5,5.9-5.8,3-2.3,3.2-1.8,1.9-.9,3.7-1.5,3-.8,2.7-.9h12.6s2.7.9,2.7.9l2.2.5,2.9,1.2,3.6,1.5,3.1,1.9,3.1,2.1,5.7,5.7,2,3.2,1.6,2.6.9,2,1.1,1.9,1.5,5.4.9,2.8-.5,14.6-1.7,4-.8,2.1-1.5,3.5-1.7,3.3-1.9,2.3c-2.3,2.8-5.5,6-8.5,8.1l-3,2.1-2.9,1.2-3,1.3c-2.4.7-6.8,2.1-9.1,2l-10.1-.2Z"/>
            <g>
              <path class="st4" d="M94.3,308.8c-.3,1.3-.7,1.3-1.2,0-1,1-1.7,1.5-2,0-.6.6-.3,1.4,0,2,.2-.9.6-.9,1,0,.8-1.1,1.6-1.5,2,0h2c.8.3.9.7,0,1.2h-5.3c3,1,2.6,2.3.1,3.5,1.9,0,1.9,1.3.1,3.6l3.2.5c.3,0,1.6-.8,1.9-.6l2.1,1.8-8.5.6,3.3.9,1.5.6c-.8.5-2,.8-3.5,1.1-.2.2-1.1.8-.8.9l3,.4h2.9c0,0,5.1-.2,5.1-.2.6,0,.6,2.1,0,2.1h-6c0,0-5.3.1-5.3.1.7.3,1.8.9,2.2.9h3.9c0,0,8.4.2,8.4.2l-2.3.9c-.4.2-1.9.6-2.3.7l-4.7.3-4.8.3c-.3,0,.8.8.9.8.9.7.8,1.9-.4,3.3l4.6-.4c1.3,1.2-.1,1.8-4.2,1.7l-.6,1.2h12.3c.2,0,1,1,.9,1l-12.6.3c0,.6,1.4,1.9,2,1.9h12.6c.1,0,.6.9.2,1.1-.6.6.2,1.2,2.4,1.9l.9,1h-18.2c1.8,1.7,1.9,2.2-.6,3.1v2.9c.1,0-.1,2.9-.1,2.9h-23.2c-.3.1-2-.3-1.8-.6l1.9-3.2,1.2-1.9,1.1-1.8,1.6-2.4,1.6-2.4,1.6-2.5,2.3-3.4c.2-.2.2-1.9.1-1.2h-5.8s1-1.8,1-1.8l1.5-2.4,2-3,1.6-2.4,2.8-4.2,1.6-2.4c.4-.6,2.1-3,1.4-3.2l-4.3-1c-.5.9,0,0,.3-.5l1.1-1.8,2.1-2.9,3-4.1,3-4.1,1.8-2.4c-1.3-.8.5.1.5.4l.2,4c0,.4.3,1.9.6,2.1l1.6,1.4c.4.3-1,2.1-1.5,2s1.5.3,2,.4,1.2.8,1.1,1.2Z"/>
              <path class="st7" d="M90.3,347v-2.1c0-.3.7-1.3.6-1.1,0,0,.7,1,.9,1h17.8c1.8-.4,1.8,2.4.2,2h-19.5Z"/>
              <path class="st6" d="M105.8,341c.4,0,1.7.9,2.1,1.2s.2.4.3.7h-16.7c-1.5.4-1.5-2.3.1-2l14.3.2Z"/>
              <path class="st1" d="M90.5,336.8c-.4.3-.2-1.9.3-1.9l4.1-.2.5-.8h5.7c.5,0,1.8,1.5,2,1.9l-10.7.2c-.3,0-1.6.7-1.9.9Z"/>
              <polygon class="st2" points="90.7 334.3 90.1 332.4 91.2 330.9 98.9 330.9 100.2 332.9 91.3 332.9 90.7 334.3"/>
              <path class="st12" d="M91.1,319c-.4,0-1.2-.4-1-.7l.8-2-.4-.9.2-2.8c0-.6,0-.9,0-.7,0,0,1,.7,1.3.8l4,.3,2.2.2c.4,0-.8,1.5-1.2,1.6l-6,.4,3.1.6c.7.1.7,1.9,0,2l-3,1.1Z"/>
              <path class="st14" d="M94.6,322.7h.6s3,.3,3,.3c.4,0,1.8.6,2.1.8h-9.3c.2-.2.7-.7,1.1-.8l2.5-.3Z"/>
              <path class="st12" d="M94.1,310.8h-2c-1.1-.6-.2-1.7,1-1.9h1.2c0,0-.3,1.9-.3,1.9Z"/>
              <path class="st12" d="M96.2,311.9v-1.3c0,0,.3.1,1.2.5l-1.2.7Z"/>
              <path class="st10" d="M93.1,308.9l-.8,1.3-.2.6h-1c-.4-.7-.7-1.5,0-2h2Z"/>
              <path class="st12" d="M91.1,310.9c-.3.1-.7-1-.9-1.6s.3-.4.9-.5v2Z"/>
            </g>
          </g>
        </g>
      </g>
    </g>
    <g>
      <path class="st8" d="M20.2,381.3c0-.8.2-1.5.8-1.9,45.2,5,90.7,8.5,136.2,10.4,51.8,3.4,103.2,10.1,154.2,19.9,93,13.7,193.1,9.4,279.4-29.9l2,1.1c3.6-1,7.7-2.1,6,3v3.1c-.1,0-.1,9.1-.1,9.1v2.9s0,6.1,0,6.1l.3,1.8c0,2.6-.2,5-.9,7.1v1.1c2.2,2.2-5.3,6.3-7.9,5.6l-1.7.7-1.3.5c-.4.5-1.1.9-2.1,1.2h-1.4c0,.1-2.2,1.3-2.2,1.3l-1.3.6c-.4.4-1.1.7-2.2,1-.3,0-.7,0-.9.1.7,1.9-.7,3.1-4.2,3.7h-4.8s-1.8,0-1.8,0c-1.7-1.1-2.6-2.4-2.8-4.1l-.2-.9c-1.8-.8-3.3-2.5-4.4-5.2-1.3-.2-2.5-.5-3.6-.9-.2.2-.3.5-.4.7-.3,2.7-1,6.1-1.8,8.4v.6c-.8,2.2-.5,3.7,1,4.2-.8,3.2-3.8,4.6-8.9,4.3h-.8s-2.2.8-2.2.8h-.9c.3.8.5,1.9,0,2.1-4.2,1.5-6.1,1.4-10.1.6l-1.7.4-2.3.9h-.8s-3.2,1-3.2,1h-.8s-2.1.9-2.1.9c-.2,0-1.1-.2-1.3-.4l-2.1-2c-.2-.2-.6-1-.7-1.3-1.4.7-2.1-.2-2.2-2.7-1.6-3.1-4.1-7.8-6.1-2.6-2.7,0-4.4,8.1-2.3,9.1-.5,2.5-1.1,4.9-4.1,3.9h-2.1c0,.1-2.3.9-2.3.9l-2.7.2-4.2,1h-1.8c-.8.6-2.2.9-4.2,1h-1.8s-3.3,1-3.3,1h-2.8c.3,2.5-1.1,3-1.8.6h-2.4c0,.1-2.7.4-2.7.4l-1.9.2-1.9-2.1v-.9c0,0-1-2.1-1-2.1l-.5-1.6-.4-1.1c-2.5-3.2-4.7-4.7-8.9-4.3-.2.3-.3.8-.3,1l-1,2.2v.9c-.3.9-.7,1.6-1.1,2.2l-.3,1.6c1.1,3.8.7,5.6-1.3,5.3-1,1-2.1,1.6-3.4,1.9h-1.8c0,0-5.1,0-5.1,0-2.9.5-6,.9-9.1,1h-1.9c0-.1-7,0-7,0-3,.7-6.1.9-9.4.6-1.2,2.1-3,1-4.2-.8-4.1-16.9-7.9-18.3-11.2-4.2l-2.2.7v.7c-1.4,3.8-5.6,5-12.4,3.8-.6,2.3-1.6,1.6-2.2-.6h-3.4c0-.1-3-.4-3-.4l-1.8.3c-4.1-.1-8.2-.5-12.1-1h-5.1c0-.1-2.1,0-2.1,0-2.5.7-3.3-1.3-2.6-6.1l-.2-.8-1.1-2.2v-1.8c-.5-.5-.8-1.2-1-2l.2-1-2.1.4c-1.7-3.5-4.8-1.6-5.4,1.5-1.6,0-2.9,1.4-3.9,4.2,0,.1.1.5.1.6l-2.1,4.2-2.1.5-1.5.3c-1.2,0-2.3-.3-3.2-.9l-2.7-.4c-2.3.7-3.4.5-3.3-.7h-1.8s-3.2-.9-3.2-.9l-1.8-.2c-1.3.1-2.4-.2-3.2-.8l-2.7-.4c-1.8.5-2.9.3-3.3-.7-.4,0-1.3-.1-1.8,0-.8-.3-1.6-.6-2.2-.9h-2.8c-1.2-.3-2.3-.6-3.2-1h-1.8c-1.3,0-2.4-.3-3.2-1h-2.7c0,0-2.2-.9-2.2-.9h-.9c-1.1-.6-1.7-1.6-1.9-3v-1.9s0-4.1,0-4.1v-2.1c-2.6.2-3.8.2-3.8.2l-.4-1.4h-1.8c-4.1,0-8.2-.1-12.2-.6l-.8-2.1-3-.4c-.9.1-1.6-.2-2.3-.7l-1.7-.4c-1.6.2-3,0-4.3-.7h-1.7s-3.3-.9-3.3-.9l-2.8-.3c-3.3.7-6.4.6-9.4-.2l-.4-1.4-3.2-.5c-1.6.1-3-.1-4.2-.8l-1.8-.2c-1.9,0-3.6-.2-5.2-.8l-2.8-.2c-1.9,0-3.6-.2-5.2-.8l-2.8-.2c-1.8,0-3.6-.3-5.2-.8h-2.1s-1.8,0-1.8,0c-1.5-.6-3.9-.6-5.3.1l-.3,1c2,1.6,0,4.9-2.5,4.1l-.8,1.3-.8,1.2-1.2,5.6c-1.8.6-3.3,1.9-4.5,3.9l-.6,1.1-.7,1.3c1,2.1-.9,3.6-2.7,4.6v.6c0,0-2.8,4.4-2.8,4.4l-2,1.8c-14,.8-29,.8-43,0-.2,0-.7,0-.9-.1-1.2-.7-1.9-1.7-2.1-3.1,0-.3,0-.7,0-.9h-1.4c-3.5-11.8-6.5-13.8-9-6-2.2-.5-3.9,5.9-4.1,8.1,1.6,2.8-1.6,5-3.4,2.6h-43.2c-1.1-.5-2.1-1.4-2.7-2.7v-.8c0,0-1-3.2-1-3.2v-.8s-1-3.2-1-3.2v-1.8s-1-2.2-1-2.2l-.3-1-1,.7c-1.3-.9-2.9-1.2-5-.9l-.9,1.2c-.2,1-.5,1.7-.9,2.2v.8c0,0-1,2.2-1,2.2v.7c0,0-1,2.4-1,2.4v.9s1,1.9,1,1.9c-1.7.8-3.4,1.7-5.2,2.9h-1.8s-6.8,0-6.8,0l-2.1.2c0,.3-.5.2-1.4-.4h-6.1c-.7,2.4-2.6,1.7-3.2-.6h-2.3s-3.8-.1-3.8-.1c-2.8-.6-5.3-.4-7.5.6l-.6-1.3-4.8-.6-2.1-.3-2-2.4c0-.2,0-.5,0-.7-.9-15.5-1.2-33.1.1-49l.2-1.8c-1.5-9.1.8-14.1,6.8-15l.9-.2,1.2-1.8c.7,1.6,2.7,2.6,5.9,3.1Z"/>
      <path class="st18" d="M422.1,456.8c.6,0-.9,1.1-1.2,1.1h-8.3c0,0-.2,1.1-.2,1.1h8c-.5.3-1.8.8-2.2.8l-5.1.2-2.6.3-2.4.6c-.4.1-2-.5-2.2-.9l-1-2-1-2-1.5-2.6c-.9-1.6-4,.2-5.7-.1l-1.6-.5.5-1.9.9-2.9,1.8-5c.2-.5,1.6-2.1,2.1-2.1h3.8c.7,0,2,1.8,2.2,2.5l.9,3.1,1.6,5.5,1.3,3.7c.3.8,2.8,1.2,3.6,1.2l8.1-.2Z"/>
      <path class="st18" d="M131.2,447.7l-1.6,1.8c.7.5,0,0-.4-.3-.8-.9-1.2-1.5-1.5-1.6l-2.1-1.1-2.3-1.7-1.5-1.2-2.1-1.8-.9,2.8-.8,2.4-.6,2c-.1.4-.2,2.7,0,1.6,1.4-.2,2.2-.4,2.2-.2l.8,2.5c.1.4-.6,2.7-1,2.7l-6-.2-3.3-.3h-16.9c-.6,0-2.3.2-2.8.4l-2.2,1.1c-.7.3-2.6.2-3.2-.1s-1.5-1.2-1.9-1.2h-3.1c0,0-7.7-.2-7.7-.2-.4,0-2.1-.7-2.3-.9h13.2c0,0,2.9,0,2.9,0h4.9s22.5,0,22.5,0v-1c-.1,0-44.2,0-44.2,0l-1.5-1.8c-.2-.2-.5-1.1-.6-1.4l1.1,1,1,1.2h43.8c.5,0,2.4-.7,2.5-1.3l.8-2.4.7-2.3.7-2,1-3,1.2-3.4c.5-1.4,4.1-2.8,5.5-2.3s2.8,1.9,3.2,3.7l1.3,4.9.6,2.3.4,1.6Z"/>
      <path class="st18" d="M348.4,441.9c-.5.2-1.4.6-1.4.8l.5,2.8c0,.4.9,2.1.5,2.2h-2.9c-1.9.2-3.8-.6-4.3-1.6l-1.2-2.4-.9,1.7-.7,1.4-1.2,1.2,1.1-2.9,1-2.3,1-2.2c.6-1.5,4.7-2.8,5.8-1.7s2.2,2.5,2.6,3.1Z"/>
      <path class="st18" d="M515.9,440c0-.1-.6.8-.7,1.1-.2.3-1.5,1-1.9,1.1s-1.2-1.1-1.2-1.3l.6-2c.1-.3-.6-1.6-.9-1.8l-2.1-1-2.2-1c-.4-.2-1.4.1-1.5.5l-.5,2.6-.7,3.4-.4,2,1.7-.6c.4-.1,1.6.7,1.9.9l2,1.3c1.1.7-.7,4.6-5.4,4.3h-2.1c0-.1-3,.4-3,.4l2.7-1.9-1.1-.4c.8-1.1,1.5-1.6,2-3.8l.5-2.4.8-3.5.6-2.2.9-3.2c.3-1,3.1-2.5,4.1-2.3,2,.4,4,3.4,4.4,4.9l.7,2.6.6,2.2Z"/>
      <polygon class="st18" points="5.2 445.9 4.1 445.7 4.1 397.9 5.3 396.9 5.1 397.9 5.1 443.9 5.2 445.9"/>
      <polygon class="st18" points="177.2 451.9 176.2 452.9 134.3 452.9 134.3 451.9 175 451.9 177.2 451.9"/>
      <path class="st18" d="M563.2,424.7l-1.6,1c0,2.3,0,2.3,0,0l-2.2-2c-.5-.4-2.1-1.1-2.8-1.3l-.6-2.3-.8-1.3,1.6-1.1c1.5-1,4.2.3,5.2,3.4l.7,2.2.5,1.6Z"/>
      <path class="st18" d="M463.3,445c-.2.3-1.1-.8-1.5-1.4s-.4-.2-.6-.2l-2.5-.2c-.7,0-2.8,0-3.2-.7l-1.1-2,1.1-1.7,4.5-.2,2.5,3.1.9,3.2Z"/>
      <path class="st18" d="M193.2,425.9l.7-1.2,1.2-1.9.6-1.1c0,.5.6.5,1.1.5h2.3c0,0,4.3-.3,4.3-.3l-2.3.9c-.4.2-2.3,0-2.5.4l-1.3,2.8c-.2.5-2.6,1.9-2.9,1.5-.8-1.6-.9-1.8-1.1-1.7Z"/>
      <path class="st18" d="M63.9,436.6l-.8,1.2-.4.9-2.2-2.1-2.3,2.6-.3-2.9c.1-.2.8-1,1-1h3.5c.4,0,1.3.8,1.4,1.2Z"/>
      <path class="st18" d="M186,438l.8-1.6,1.1-1.8,1.9-3.1,1.1-1.9.7-1.2-.3,1.8c-.2.4,0,1.6.1,2.1l.6,2.8c0,.4-1.6,1.1-1.9.9s-2-1.4-1.5-1l-1.3,2.1c-.2.3-1.1,1.2-1.4,1Z"/>
      <path class="st18" d="M283.4,433.8l-3.5.4,2.1,1.2c.4.2-1.5.7-1.9.6l-2.3-.7-3-.9,2.2-.6,2-1.1h2.2c.5.2,2.1.6,2.1,1.1Z"/>
      <path class="st18" d="M372.3,456.8h-1.4c0,0-9.6.2-9.6.2-.3,0-1.8-1.1-1.2-1.2l9.9.2c.6,0,2.3.3,2.2.8Z"/>
      <path class="st18" d="M440.1,455.8c.5.1-.8,1.2-1.1,1.2l-6.7-.2h-1.3c-.2-.5,1.6-.7,2.2-.8l6.9-.2Z"/>
      <path class="st18" d="M182,445.1l.9-1.5,1-1.8.8-1.3,1.4,1.9-1.1,1.7c0,.2-.5.4-.7.4l-1.3.2-1,.4Z"/>
      <polygon class="st18" points="598 413.8 598.3 408.9 598.9 406.8 599.2 408.9 599.1 413.8 598 413.8"/>
      <path class="st18" d="M218.3,422.5l-3.3.4c-.5,0-2.3-.7-2-1.2l3.1.2,2.1.6Z"/>
      <polygon class="st18" points="552.9 427.8 553 426.9 553.5 423.2 554.1 421 554.7 419.4 555.4 421.2 554.3 423.3 554.1 427.8 552.9 427.8"/>
      <path class="st18" d="M210.3,421.6l-3.3.3c-.4,0-2.2-.6-1.9-1.1h3.2c0,0,2,.8,2,.8Z"/>
      <path class="st18" d="M201.3,420.7h-2.2c0,.1-3.1.1-3.1.1,0-.3.2-.8.3-.8h4.5c0,0,.3.4.4.7Z"/>
      <path class="st18" d="M226.3,423.5l-3.3.4c-.5,0-2.2-.7-1.9-1.2l3.1.3c.5,0,2.2.5,2.2.5Z"/>
      <path class="st18" d="M232.4,424.5l-2.3.4c-.5,0-2.3-.6-1.9-1.2l2.1.2,2.1.6Z"/>
      <path class="st18" d="M257.4,428.5l-2.3.4c-.5,0-2.3-.6-2-1.1l2,.3,2.3.5Z"/>
      <path class="st18" d="M494.1,448.8c.3.5-1.5,1-1.9,1h-2.3s2.3-.8,2.3-.8l1.9-.2Z"/>
      <path class="st18" d="M320.3,451.8h-2.2c-.3,0-1.4-.8-1-.9l2,.3,1.2.6Z"/>
      <polygon class="st18" points="299.3 447.8 296.6 447.9 296.1 446.8 298.4 446.9 299.3 447.8"/>
      <polygon class="st18" points="315.3 450.6 312.8 451.2 312.1 449.8 314.1 450.1 315.3 450.6"/>
      <path class="st18" d="M251.4,427.7h-2.2c-.4,0-1.4-.8-1-1l2,.3,1.3.6Z"/>
      <polygon class="st18" points="294.3 446.7 291.7 447.2 291.1 445.8 293 446.1 294.3 446.7"/>
      <path class="st18" d="M482.1,450.8c.4.2-.7,1-1,1h-2.2s1.3-.7,1.3-.7l2-.3Z"/>
      <path class="st18" d="M67.2,448.9c-.1.4-1-.7-1-1v-2.2c.3-.2.7,1,.8,1.3l.2,2Z"/>
      <path class="st18" d="M66.2,444.9c-.2.4-1-.7-1-1v-2.2c.3-.2.7.9.7,1.3l.3,2Z"/>
      <path class="st18" d="M526.1,441.8c.4.2-.7,1-1,1h-2.2c-.3-.2.9-.7,1.2-.8l2-.2Z"/>
      <path class="st18" d="M499.1,447.8c.3.2-.7.8-1,1s-1.1-.3-1.3-.2l.4-.7h1.9Z"/>
      <polygon class="st18" points="349.3 444.9 347.8 444.3 348.1 442.9 349 443 349.3 444.9"/>
      <path class="st18" d="M133.4,451.8l-1.5-.5c-.2,0-.7-1.2-.7-1.4v-1.3c.1,0,1.4,1.8,1.4,1.8l.8,1.3Z"/>
      <polygon class="st18" points="453.1 443.9 453.1 441.9 454.1 441.7 454 443.8 453.1 443.9"/>
      <path class="st18" d="M465.1,449.9c-.1.4-.9-.6-.9-.9v-1.2c.3,0,.4.3.7,1.4l.2.8Z"/>
      <path class="st18" d="M529.1,440.9c.3.2-.7.7-1,.9s-1.1,0-1.2,0l1.3-.7.9-.2Z"/>
      <path class="st18" d="M55.1,442.9l.3-1.9c0-.1.3-.2.7-.4,0,.2,0,1.1,0,1.2-.2.4-.8,1.4-.9,1Z"/>
      <path class="st18" d="M54.1,446v-1c.1,0,.9-1.4.9-1.4v2.1c-.1.1-.5.2-.9.2Z"/>
      <path class="st18" d="M65.2,439.9c-.2.3-.9-.7-1-1v-1.3c0,0,.7,1.3.7,1.3,0,.3.2.8.2.9Z"/>
      <path class="st18" d="M56.1,439.9l.3-1.9c0-.1.3-.2.6-.4l.2,2.2h-1.1Z"/>
      <path class="st18" d="M544.1,436.9l-1,.9c-.2.1-1.1,0-1.3,0,.1-.3.3-.6.4-.6l1.9-.2Z"/>
      <path class="st18" d="M261.4,429.6c-.2,0-1.2.4-1.3.3l-.9-1.1.9.2,1.3.5Z"/>
      <path class="st18" d="M334.9,452.9l.5-1.7.9-2.3.7-.2c0,.2.1,1.1,0,1.3l-1,2.1c-.1.3-.9.8-1.2.8Z"/>
      <path class="st18" d="M288.4,445.7h-2.1c-.1,0-.1-.3-.1-.8h.7c0,.1,1.5.8,1.5.8Z"/>
      <path class="st18" d="M452,446.9l.3-1.9c0-.1.3-.2.7-.3v2.1s-1.1,0-1.1,0Z"/>
      <path class="st18" d="M566.1,429.7c-.3,0-.7,0-.8,0l-2.3-2.5c-.1-.1.3-1.3.3-1.5l.7,1.5,1.8,2.1.2.5Z"/>
      <polygon class="st18" points="580.1 424.8 580.1 425.9 577.9 425.8 578.1 425 580.1 424.8"/>
      <path class="st18" d="M179.2,450.1l.6-1.6,1.1-1.7,1.2-1.1-.7,1.6c-.2.4-.8,1.5-1.2,1.8l-1.1,1Z"/>
      <path class="st18" d="M350.2,448.9l-1-.9c0-.2,0-1.1,0-1.2.4.1.6.3.7.4l.4,1.8Z"/>
      <polygon class="st18" points="304.3 448.7 302.2 448.9 302.1 447.8 304 447.8 304.3 448.7"/>
      <path class="st18" d="M587,421.7v1.1s-2.1.2-2.1.2c0-.4.2-.6.4-.6l1.7-.6Z"/>
    </g>
  </g>
  <path class="st18" d="M218.6,20.1l-.6.5-5.6,5.6-1.1,1.1c0-.3.4-1.5.7-1.8l5.1-5.1-.8-.8.6-.5.7.8,1,.2Z"/>
  <path class="st18" d="M206.1,34.1c0-1,.7-1.6,2.1-2.2l-.9,1.1-1.2,1Z"/>
  <path class="st18" d="M7.3,449c-.3,0-1.4-.5-1.5-.8l-.5-1.6,1.1,1.1.9,1.3Z"/>
  <path class="st18" d="M467.2,452.9c-.9,0-1.8-.8-1.9-2.1l1.2.8.8,1.3Z"/>
</svg>