<?xml version="1.0" encoding="UTF-8"?>
<svg id="Layer_1" xmlns="http://www.w3.org/2000/svg" version="1.1" viewBox="0 0 139.6 135.3">
  <!-- Generator: Adobe Illustrator 30.5.1, SVG Export Plug-In . SVG Version: 2.1.4 Build 3)  -->
  <defs>
    <style>
      .st0 {
        fill: #df9b1e;
      }

      .st1 {
        fill: #e19c1d;
      }

      .st2 {
        fill: #e09b1e;
      }

      .st3 {
        fill: #e8a829;
      }

      .st4 {
        fill: #faf3e7;
      }

      .st5 {
        fill: #faf3e6;
      }

      .st6 {
        fill: #211301;
      }

      .st7 {
        fill: #39260b;
      }

      .st8 {
        fill: #e8a92a;
      }
    </style>
  </defs>
  <polygon class="st2" points="72.2 72.9 72.2 40.3 101.2 24.5 101.2 57.2 72.2 72.9"/>
  <polygon class="st4" points="67.5 73 38.4 57.1 38.4 24.6 67.5 40.4 67.5 73"/>
  <polygon class="st8" points="69.8 36.4 41 20.6 69.7 4.8 98.5 20.5 69.8 36.4"/>
  <path class="st7" d="M101.9,135l-32.1-17.2-31.9,17.3c-1.3.3-2.6.2-3.8-.4L2.8,117.9c-1.8-.6-2.9-2.1-2.8-4v-36.8c.3-1.1.8-2,1.7-2.7l32.1-17.3V21.1c.1-1.2.6-2.1,1.4-2.8L66.9,1c1.8-1.3,3.9-1.4,5.8,0l31.3,17.1c1.1.7,1.8,1.8,1.8,3.1v36s32.4,17.3,32.4,17.3c.8.7,1.3,1.6,1.4,2.6v36.9c.1,1.6-.7,3-2.1,3.7l-31.9,17.1c-1.2.5-2.3.5-3.7.1ZM69.8,36.4l28.7-15.9-28.8-15.7-28.7,15.8,28.7,15.8ZM67.5,73v-32.5s-29.1-15.9-29.1-15.9v32.6s29.1,15.8,29.1,15.8ZM72.2,72.9l29-15.7V24.5s-29.1,15.8-29.1,15.8v32.6ZM36.2,92.5l28.8-15.6-28.9-15.6-28.8,15.6,28.9,15.7ZM103.7,92.4l28.7-15.6-28.8-15.6-28.7,15.6,28.9,15.6ZM105.9,129.3l29.1-15.7v-32.9s-29.2,15.7-29.2,15.7v32.8ZM33.8,129.2v-32.7c0,0-29.1-15.7-29.1-15.7v32.7s29.1,15.7,29.1,15.7ZM67.5,113.6v-32.8c0,0-29.2,15.7-29.2,15.7v32.9s29.2-15.9,29.2-15.9ZM101,129.2l.9-.5v-30.3c-.1,0-.9-2-.9-2l-28.8-15.5v32.8s28.9,15.5,28.9,15.5Z"/>
  <polygon class="st0" points="105.9 129.3 105.8 96.5 135 80.7 135 113.6 105.9 129.3"/>
  <polygon class="st5" points="101.7 98.4 101 129.2 72.1 113.6 72.1 80.8 101 96.4 101.7 98.4"/>
  <polygon class="st3" points="103.7 92.4 74.8 76.8 103.5 61.2 132.3 76.8 103.7 92.4"/>
  <polygon class="st6" points="101 129.2 101.7 98.4 101.9 128.7 101 129.2"/>
  <polygon class="st1" points="67.5 113.6 38.4 129.4 38.4 96.5 67.5 80.8 67.5 113.6"/>
  <polygon class="st5" points="33.8 129.2 4.7 113.5 4.7 80.8 33.8 96.5 33.8 129.2"/>
  <polygon class="st3" points="36.2 92.5 7.3 76.8 36.1 61.2 65 76.8 36.2 92.5"/>
</svg>