<?xml version="1.0" encoding="UTF-8"?>
<svg id="Layer_1" xmlns="http://www.w3.org/2000/svg" version="1.1" viewBox="0 0 146 119.9">
  <!-- Generator: Adobe Illustrator 30.5.1, SVG Export Plug-In . SVG Version: 2.1.4 Build 3)  -->
  <defs>
    <style>
      .st0 {
        fill: #f8b72e;
      }

      .st1 {
        fill: #38270f;
      }

      .st2 {
        fill: #f9f2e6;
      }

      .st3 {
        fill: #3a270d;
      }

      .st4 {
        fill: #4d4031;
      }

      .st5 {
        fill: #3b270c;
      }

      .st6 {
        fill: #37260f;
      }

      .st7 {
        fill: #211301;
      }

      .st8 {
        fill: #faf4e7;
      }

      .st9 {
        fill: #e7a728;
      }
    </style>
  </defs>
  <polygon class="st4" points="146 107.8 145.1 107.1 145.1 26.4 146 24.9 146 107.8"/>
  <path class="st9" d="M66.5,100.8l4.9,3.3c1.1.5,2.4.3,3.6-.4,5.9-4.5,12-8.2,19.2-10.4,12.6-4.2,25.9-3.2,37.6,3.2l2.9-.3.8-2.4V29.1s-.1-2.8-.1-2.8v-3.2c1.9,0,3.9.6,5.2,1.5v11.4c-.1,0,.3.9.3.9l.2,1.4v2.2c0,0-.2,6-.2,6l-.5.7.5.7.7,3.2-1.1.5-.3,7.4.3.9h.7c0,0,0,.9,0,.9v1.9c.1,0-1.1,1.1-1.1,1.1l1.2,1.6v5.1s-.7,0-.7,0l-.3.8v3.5s1,.3,1,.3v4.2s-.9.1-.9.1v22s.9.1.9.1l.4.9-.8,1.6h-16.7c0-.1-.9.1-.9.1v.6c0,0-3.7,0-3.7,0l-.5-.9h-31s-1.5.7-1.5.7l-1.9,1.8c-.4,3.5-2.7,5.8-5.6,7.4-3.9,1.5-8.1,1.7-12,.2-3.3-1.4-5.6-3.8-6-7.5-.5-1-1.3-1.7-2.5-1.9H4.6s0-79.6,0-79.6c1.6-1.5,3.7-2,5.7-1.8v70.8s1.1,2.4,1.1,2.4h2.7c9.9-5.6,21-7,32.1-4.7,7.5,1.5,14.2,4.7,20.3,8.9Z"/>
  <polygon class="st0" points="119.7 104.9 86.6 104.6 88.2 104 119.2 104 119.7 104.9"/>
  <polygon class="st7" points="141.8 102.5 141.4 101.7 141.4 79.5 141.4 75.3 141.4 70.7 141.4 65.6 141.4 62.8 141.3 61 141.9 61.5 141.8 102.5"/>
  <polygon class="st0" points="141 104.1 139.6 105 123.3 104.8 123.4 104.2 124.3 104 141 104.1"/>
  <polygon class="st7" points="141.1 38.4 140.9 37 140.9 29.1 141.7 26.8 142 37.4 141.6 38.3 141.1 38.4"/>
  <polygon class="st7" points="141.7 51.2 141 48.1 140.9 46.6 141 40.6 141.9 41.1 141.7 51.2"/>
  <polygon class="st0" points="141.7 26.8 140.9 29.1 140.9 37 140.4 36.1 140.6 24.6 141.7 26.8"/>
  <polygon class="st0" points="141.4 60.1 140.7 60 140.4 59.2 140.7 51.7 141.3 55.6 141.4 60.1"/>
  <path class="st7" d="M135.5,29.1c-.5-.5-.5-2.3,0-2.8v2.8Z"/>
  <polygon class="st7" points="141.6 104 141.9 104.2 141.6 104.4 141.3 104.2 141.6 104"/>
  <path class="st3" d="M146,24.9l-.9,1.5v80.8s.9.6.9.6c-1,.9-1.5,1.3-2.4,1.7h-54.8c-1.5,4.4-4.6,7.3-8.7,9.1-4.4,1.7-9.2,1.9-13.7.4-4.6-1.6-7.9-4.8-9.5-9.5H2.3c-1.4-.3-2.2-1.3-2.3-2.8V25.5c.2-2.1,1.2-3.5,2.6-4.9,2.4-1.3,4.7-1.9,7.6-2.2v-9.7c.6-1.1,1.6-2,2.8-2.7C21.7,1.2,31.1-.7,41.1.2c11.9.8,22.7,5.9,31.7,14.2C83.3,4.7,96.9-.7,111.3.1c7.8.1,14.8,2.3,21.6,6,1.3.6,2.4,1.8,2.7,3.2v9s6.3,1.4,6.3,1.4c2.1,1.4,3.5,2.9,4.1,5.2ZM14.8,10.5l-.6,1.6v79c13.6-6.2,27.8-6.6,41.2-1.4,5.2,2,9.9,4.5,14.2,7.9l.3.6c-2,0-2.8,1.1-3.4,2.7-6.1-4.2-12.8-7.5-20.3-8.9-11-2.3-22.2-.9-32.1,4.6h-2.7c0,0-1.2-2.3-1.2-2.3V23.3c-2-.2-4,.2-5.6,1.8v79.6s54,0,54,0c1.2.2,2,.9,2.5,1.9.4,3.7,2.7,6.1,6,7.5,3.9,1.5,8.1,1.3,12-.2,2.9-1.6,5.2-3.9,5.6-7.4l1.9-1.8,33.1.2h3.6s16.3,0,16.3,0l1.4-.9.8-1.6v-41c.1,0-.5-.5-.5-.5v-.9c0,0,0-4.5,0-4.5l-.6-3.8,1.1-.5.2-10.2-.9-.5v-2.2c0,0,.6,0,.6,0l.3-.9-.2-10.6-1.1-2.2c-1.3-1-3.2-1.4-5-1.5v3.2c-.6.5-.6,2.2,0,2.8v64.7s-.8,2.4-.8,2.4l-2.9.3c-11.7-6.3-25-7.4-37.6-3.2-7.1,2.3-13.3,5.9-19.2,10.4-1.2.7-2.5.9-3.6.4l-.8-3.5c1.3-.5,2.4-1.5,1.8-3.2.5-.9,1.2-1.7,1.9-2l.3,2.7c5.5-3.6,10.3-6.6,16.2-8.7,13-4.9,27.1-4.7,39.7,1.2l1.1.2V11.6s-.6-1.1-.6-1.1l-9.3-4c-16.6-4.5-34.7.1-46.6,12.2l-.8.9v4.2c0,0-3.1-.2-3.1-.2,0-1.8,0-3.3-.4-4.6-9.2-9.2-21.2-14.3-34.3-14.2-7.8,0-15,1.9-21.6,5.6ZM141.6,104l-.3.2.3.2.2-.2-.2-.2Z"/>
  <path class="st2" d="M70.8,19l.3,79.1-1.5-.5c-4.3-3.4-9-5.9-14.2-7.9-13.3-5.2-27.6-4.8-41.1,1.4l.5-80.6c6.7-3.8,13.8-5.6,21.6-5.6,13.1,0,25.1,5,34.3,14.2ZM55.5,37.5c1.4.1,2.4-.3,3-1.4,0-1-.3-2.1-1.2-2.9-8.8-4-18.1-5.2-27.7-3.9-1.6.1-2.5,1.3-2.3,2.7.2,1.2,1.5,2.1,3,1.9,8.7-1.1,17.2-.1,25.2,3.5ZM55.5,52.7c1.4,0,2.3-.3,3.1-1.4,0-.9-.3-1.8-.9-2.8-8.9-4.2-18.3-5.4-28-4-1.4.2-2.3,1.3-2.4,2.4.1,1.5,1.2,2.3,2.7,2.3,8.8-1.2,17.4-.2,25.5,3.5ZM55.6,68.1c1.7,0,2.5-.7,3-1.9-.1-.8-.6-1.7-1.3-2.5-8.6-4-17.8-5.2-27.3-3.9-1.7,0-2.8,1.2-2.7,2.8.2,1.2,1.5,2.1,2.9,1.9,8.7-1.1,17.1-.2,25.3,3.6Z"/>
  <path class="st8" d="M131.1,10.5l-.5,80.2c-12.5-5.9-26.7-6.1-39.7-1.2-5.9,2.1-10.7,5.1-16.2,8.7l.6-3.7V18.7c11.8-12.1,29.9-16.7,46.5-12.2l9.3,4ZM115.6,34c1.7.2,2.9-.8,2.9-2.4,0-1.3-1-2.3-2.5-2.4-9.6-1.3-18.9,0-27.7,4-1,.9-1.2,2.1-.8,3.4.8.7,1.8.9,3.1.8,8-3.6,16.5-4.6,25.1-3.4ZM116.4,49.3c1.4-.7,2.1-1.6,2.2-2.8-.4-1.1-1.3-1.9-2.7-2.1-9.6-1.3-18.9,0-27.7,4.1-1,.9-1.2,2.1-.8,3.3.8.7,1.8,1,3,.8,8.2-3.7,17-4.8,26-3.3ZM115.6,64.5c1.6.2,2.7-.9,2.9-2.4,0-1.2-1.2-2.3-2.6-2.3-9.8-1.3-19.1,0-28,4.2-.7,1-.8,2-.6,3.2.8.7,1.8.9,3.1.8,8-3.5,16.5-4.6,25.2-3.4Z"/>
  <path class="st5" d="M74.4,23.8v71.7c-.7.3-1.4,1.2-1.9,2,.6,1.7-.5,2.7-1.8,3.2l.8,3.5-4.9-3.3c.6-1.6,1.4-2.6,3.4-2.7l-.3-.6,1.5.5V23.6s3.3.2,3.3.2Z"/>
  <polygon class="st7" points="130.6 90.7 131.1 10.5 131.7 11.6 131.7 90.9 130.6 90.7"/>
  <polygon class="st7" points="75.1 18.7 75.3 94.6 74.7 98.2 74.4 95.5 74.4 23.8 74.3 19.6 75.1 18.7"/>
  <polygon class="st7" points="14.3 91.1 14.3 12 14.8 10.5 14.3 91.1"/>
  <path class="st7" d="M71.2,23.6v74.5s-.4-79.1-.4-79.1c.4,1.3.4,2.8.4,4.6Z"/>
  <path class="st1" d="M55.5,37.5c-8-3.6-16.5-4.6-25.2-3.5-1.5.2-2.8-.7-3-1.9-.1-1.5.8-2.6,2.3-2.7,9.6-1.4,18.9-.1,27.7,3.9.9.8,1.3,1.9,1.2,2.9-.7,1.1-1.7,1.5-3,1.4Z"/>
  <path class="st1" d="M55.6,68.1c-8.2-3.9-16.7-4.7-25.3-3.6-1.5.2-2.7-.7-2.9-1.9-.1-1.6,1-2.8,2.7-2.8,9.5-1.3,18.6,0,27.3,3.9.8.8,1.2,1.7,1.3,2.5-.5,1.3-1.3,1.8-3,1.9Z"/>
  <path class="st6" d="M55.5,52.7c-8-3.8-16.7-4.7-25.5-3.5-1.5,0-2.6-.8-2.7-2.3,0-1.1,1-2.2,2.4-2.4,9.8-1.4,19.1-.1,28,4,.6.9.8,1.9.9,2.8-.7,1.1-1.7,1.5-3.1,1.4Z"/>
  <path class="st1" d="M115.6,64.5c-8.6-1.2-17.1-.1-25.2,3.4-1.3.1-2.3-.1-3.1-.8-.2-1.1,0-2.1.6-3.2,8.9-4.1,18.2-5.5,28-4.2,1.4,0,2.5,1.1,2.6,2.3-.2,1.5-1.3,2.6-2.9,2.4Z"/>
  <path class="st1" d="M115.6,34c-8.6-1.2-17.1-.2-25.1,3.4-1.2.1-2.3-.1-3.1-.8-.4-1.2-.2-2.4.8-3.4,8.8-4,18.1-5.3,27.7-4,1.5,0,2.5,1.1,2.5,2.4,0,1.5-1.2,2.6-2.9,2.4Z"/>
  <path class="st6" d="M116.4,49.3c-9-1.4-17.7-.3-26,3.3-1.2.2-2.3,0-3-.8-.4-1.2-.2-2.5.8-3.3,8.8-4,18.1-5.4,27.7-4.1,1.3.1,2.3.9,2.7,2.1-.1,1.1-.8,2.1-2.2,2.8Z"/>
  <polygon class="st0" points="141.4 79.5 141.4 101.7 140.5 101.6 140.5 79.6 141.4 79.5"/>
  <polygon class="st0" points="141.4 70.7 141.4 75.3 140.5 75 140.4 71.5 140.7 70.7 141.4 70.7"/>
  <polygon class="st0" points="141.4 62.8 141.4 65.6 140.3 64 141.4 62.8"/>
  <polygon class="st0" points="141 48.1 140.5 47.4 140.9 46.6 141 48.1"/>
</svg>