<?xml version="1.0" encoding="UTF-8"?>
<svg id="Layer_1" xmlns="http://www.w3.org/2000/svg" version="1.1" viewBox="0 0 123.6 134.4">
  <!-- Generator: Adobe Illustrator 30.5.1, SVG Export Plug-In . SVG Version: 2.1.4 Build 3)  -->
  <defs>
    <style>
      .st0 {
        fill: #fbefdb;
      }

      .st1 {
        fill: #2f1f07;
      }

      .st2 {
        fill: #f1af35;
      }

      .st3 {
        fill: #100601;
      }

      .st4 {
        fill: #fcefda;
      }

      .st5 {
        fill: #140801;
      }
    </style>
  </defs>
  <path class="st1" d="M78,90.3l-.3.7c0,11.6,0,23.2,0,34.8-.3,1.3-1.4,2.9-3,3.2l-23.3,5.2c-1.5.3-3.1,0-4.2-.9s-1.7-2.2-1.7-3.7v-39.4s-17-21.7-17-21.7L3.2,35.6C1.4,33.5,0,31.1,0,28.3v-12.2c0-2.3,2.1-4.3,3.9-5.6C11.6,5,26.4,2.5,36.4,1.4c19.1-2.1,38.2-1.9,57.2.8s12.8,2.3,19,4.6,11,5.2,11,9.6v11.8c0,2.6-1.1,4.8-2.7,6.8l-42.9,55.1Z"/>
  <g>
    <path class="st5" d="M78,90.3v34.5c0,0-.2,1.1-.2,1.1l-.4-.4v-34.1c0-.2,0-.7,0-.7l.5-.3Z"/>
    <path class="st2" d="M118.7,24.6c0,1.9.4,4.1-.5,5.8l-44.1,56.8h-24.6s-12.9-16.5-12.9-16.5L5.3,30.2c-.5-1.9-.4-3.6-.3-5.5,9.4,5.2,22.9,7.5,33.8,8.5,21.4,2,47.2,1.5,68-3.8,4.3-1.1,8.1-2.6,12-4.8Z"/>
    <path class="st4" d="M94.8,26.9c-21.9,3.3-43.8,3.3-65.5,0s-10.8-2-16-3.8-8.3-3.5-8.4-5.9,3.7-4.2,6.4-5.3c4.9-1.9,9.8-3.1,15.1-4,20.5-3.5,41.2-3.9,61.9-1.4s14.2,2.1,21.1,4.3c3.4,1.1,9.1,3.6,9.5,6.2.7,4.9-17.5,8.8-24,9.8Z"/>
    <polygon class="st0" points="73.5 92.2 73.4 124.2 50.5 129.4 50.5 92.2 73.5 92.2"/>
    <path class="st3" d="M73.4,124.2v-32s0,32,0,32Z"/>
  </g>
</svg>