<?xml version="1.0" encoding="UTF-8"?>
<svg id="Layer_1" xmlns="http://www.w3.org/2000/svg" version="1.1" viewBox="0 0 131.7 131.6">
  <!-- Generator: Adobe Illustrator 30.5.1, SVG Export Plug-In . SVG Version: 2.1.4 Build 3)  -->
  <defs>
    <style>
      .st0 {
        fill: #e8a729;
      }

      .st1 {
        fill: #39260b;
      }
    </style>
  </defs>
  <path class="st1" d="M80.6,125.6c-.3,3.6-3.1,6-6.5,6h-17.4c-2.8-.5-5-2.6-5.5-5.4l-1.1-9.4-9.6-4.1-7.5,5.8c-2.8,1.9-6.2,1.5-8.7-.6l-11.3-11.4c-1.8-2.4-1.8-5.6-.1-8.1l5.7-7.1-3.7-9.4-8.7-1c-3.7-.2-6.4-3.2-6.2-6.8v-17.4c.6-2.9,2.7-4.9,5.7-5.3l9.2-1.1,3.8-9.2-6.1-7.6c-1.7-3.1-1-6.8,1.6-9.1l9.5-9.9c2.7-2.8,6.6-3.4,9.8-.9l6.9,5.5,9.8-4.1,1.1-10C52,1.9,54.5.1,57.5,0h16.7c3.5,0,6.2,2.5,6.5,6l.9,8.8,9.7,4.2,6.9-5.6c2.9-2.3,6.6-2,9.3.4l10.7,11c2.4,2.6,2.6,6.5.3,9.3l-5.4,6.7,3.9,9.4,9.1,1c3.1.4,5.3,2.7,5.6,5.8v18.1c-.5,2.8-2.2,5-5,5.5l-9.7,1.1-3.9,9.4,5.5,6.8c2.1,2.6,2,5.8,0,8.5l-11.5,11.6c-2.7,2.1-6.3,2.2-9,0l-6.8-5.4-9.8,4.2-.9,8.7ZM74,126.8c.7-.4,1.5-1.2,1.8-1.7l.9-10.2c.5-1.3,1.7-2.5,3.1-2.7,3.4-1.1,6.3-2.4,9.5-4.1,1-.6,2.4-.8,3.4-.4l8.1,6.5c1.4.8,3.1.6,4.1-.6l9.2-9.3c1.1-.9,1.2-2.7.3-3.8l-6.3-7.7c-.3-1.1-.1-2.6.6-3.6l3.8-9.7c.4-.9,1.3-1.8,2.1-2.4l10.1-1c1.2,0,2.2-1.2,2.2-2.5v-15.3c-.2-.9-1-1.9-1.8-2.2l-9.8-1c-1.3-.2-2.5-1.2-2.8-2.6-1.1-3.6-2.3-6.6-4.1-9.9-.4-1-.5-2.3-.2-3.3l5.7-6.9,1.4-2.4-1.4-2.5-9.4-9.6c-1.2-1.1-3-1-4.1.1l-7.3,5.8c-.8.3-2.2.4-3.1.3-3.9-2.1-7.4-3.6-11.6-4.8-.9-.6-1.7-1.9-1.8-3l-.8-9.6c-.4-.7-1.3-1.4-2.1-1.7h-15.4c-1.1,0-2.2,1-2.4,2l-.8,8.9c0,1.8-1.1,3.6-3.1,3.6l-9.4,4c-1.3,1.2-3.3.9-4.6-.1l-7.3-5.7c-1.2-.8-2.8-.6-3.7.5l-9.6,9.9c-1.1,1.2-.9,3,.3,4.1l5,6.1c1.3,1.1,1.7,3.1.6,4.5l-3.9,9.6c-.1,1.4-1.3,2.4-2.6,2.8l-9.7,1c-1.1.1-2.1,1.1-2.4,2.2v15.4c0,1.1.9,2.1,1.9,2.4l9.8.8c1.1.3,2.3,1.1,2.7,2.2l4.1,10.3c.9,1.3.7,3-.3,4.2l-6.1,7.5c-.5,1.3,0,2.8,1.2,3.6l8.5,8.6c1.3,1.7,3.4,1.9,4.9.4l6.6-5.4c.9-.9,2.5-1.2,3.6-.5l10.3,4.6c1.9.2,3,2,2.9,3.8l.9,8.6c0,1.2,1.3,2.2,2.5,2.1h15.6Z"/>
  <path class="st0" d="M74,126.8h-15.6c-1.2.1-2.4-.9-2.5-2.1l-.9-8.6c0-1.8-.9-3.6-2.9-3.8l-10.3-4.6c-1.1-.7-2.7-.4-3.6.5l-6.6,5.4c-1.5,1.4-3.6,1.2-4.9-.4l-8.5-8.6c-1.1-.9-1.6-2.3-1.2-3.6l6.1-7.5c.9-1.2,1.1-2.9.3-4.2l-4.1-10.3c-.5-1-1.6-1.9-2.7-2.2l-9.8-.8c-1-.3-1.8-1.3-1.9-2.4v-15.4c.3-1.1,1.3-2.1,2.4-2.2l9.7-1c1.3-.4,2.4-1.5,2.6-2.8l3.9-9.6c1.1-1.4.7-3.4-.6-4.5l-5-6.1c-1.2-1.1-1.3-2.9-.3-4.1l9.6-9.9c.9-1.1,2.5-1.3,3.7-.5l7.3,5.7c1.3,1.1,3.2,1.3,4.6.1l9.4-4c2,0,3.1-1.8,3.1-3.6l.8-8.9c.2-1,1.3-1.9,2.4-2h15.4c.8.2,1.7,1,2.1,1.7l.8,9.6c.1,1.1.8,2.4,1.8,3,4.2,1.3,7.7,2.7,11.6,4.8.9.1,2.3,0,3.1-.3l7.3-5.8c1.1-1.1,2.9-1.2,4.1-.1l9.4,9.6,1.4,2.5-1.4,2.4-5.7,6.9c-.3,1-.2,2.4.2,3.3,1.8,3.3,3,6.3,4.1,9.9.3,1.3,1.5,2.4,2.8,2.6l9.8,1c.8.3,1.6,1.3,1.8,2.2v15.3c0,1.3-1,2.4-2.2,2.5l-10.1,1c-.8.5-1.7,1.5-2.1,2.4l-3.8,9.7c-.7,1-.9,2.4-.6,3.6l6.3,7.7c.9,1.2.8,2.9-.3,3.8l-9.2,9.3c-1.1,1.2-2.8,1.3-4.1.6l-8.1-6.5c-1-.4-2.4-.2-3.4.4-3.1,1.7-6.1,3-9.5,4.1-1.4.2-2.6,1.4-3.1,2.7l-.9,10.2c-.2.6-1,1.4-1.8,1.7ZM94.6,66.1c0-15.8-12.8-28.7-28.7-28.7s-28.7,12.8-28.7,28.7,12.8,28.7,28.7,28.7,28.7-12.8,28.7-28.7Z"/>
  <path class="st1" d="M94.6,66.1c0,15.8-12.8,28.7-28.7,28.7s-28.7-12.8-28.7-28.7,12.8-28.7,28.7-28.7,28.7,12.8,28.7,28.7ZM89.7,66.1c0-13.2-10.7-23.8-23.8-23.8s-23.8,10.7-23.8,23.8,10.7,23.8,23.8,23.8,23.8-10.7,23.8-23.8Z"/>
</svg>