<?xml version="1.0" encoding="UTF-8"?>
<svg id="Layer_1" xmlns="http://www.w3.org/2000/svg" version="1.1" viewBox="0 0 132.5 138.8">
  <!-- Generator: Adobe Illustrator 30.5.1, SVG Export Plug-In . SVG Version: 2.1.4 Build 3)  -->
  <defs>
    <style>
      .st0 {
        fill: #e0d5c6;
      }

      .st1 {
        fill: #3b270c;
      }

      .st2 {
        fill: #e7a72a;
      }

      .st3 {
        fill: #372409;
      }

      .st4 {
        fill: #e6a628;
      }

      .st5 {
        fill: #f9f2e5;
      }
    </style>
  </defs>
  <path class="st3" d="M33.1,127.8c.2-2-.8-3-2.5-4l9.8-3.7c-3.7-1.5-5.4-4.6-5.2-8.6-5.5.2-10-3.6-9.6-9.3-3.4,0-6-1.5-8-4.4l-6.8,19.2c4.5,2.3,8.2,5.4,10.3,10.1l2-.4,1.8,2,2,1.4-22.3,8.5c-1.4.3-2.5,0-3.6-.5-.8-1.1-1.1-2.2-1-3.7l14.7-42L79.4,24.1c1.1-1,1.8-2.1,2.3-3.4l8.4-8.8,2.8-1.3,7.4-7.9c4.7-3.9,11.2-3.4,15.8.5l11.4,11.6c5.9,4.9,6.7,13.4,1.9,19.4l-6.3,6.6c-.2,1.4-.8,2.5-1.7,3.4l-6.8,7.2c-.9,1.1-1.8,1.8-3.2,2.3L45.6,123.2l-12.5,4.6ZM93.1,15.2l-7.3,7.3,25.5,25.5,7.3-7.3-25.5-25.5ZM27.2,97.8l62-65.6-5.7-5.7L20.5,93.1c.6,2,1.2,3.1,2.2,4.2,1.5.5,2.7.6,4.5.5ZM37.3,107.3l61.7-65.3-6.7-6.8L30.4,100.6c-1.1,2.5-.1,5,2.2,6.4,1.6.3,3,.5,4.8.3ZM102,45.1l-63.8,67.6,5.9,5.6,63.8-67.6-5.9-5.6Z"/>
  <path class="st1" d="M30.7,123.8c1.7.9,2.7,2,2.5,4l-6.2,2.4-2-1.4-1.8-2,7.5-2.9Z"/>
  <path class="st4" d="M37.3,107.3c-1.8.2-3.2,0-4.8-.3-2.3-1.4-3.3-3.9-2.2-6.4l61.9-65.4,6.7,6.8-61.7,65.3Z"/>
  <path class="st2" d="M27.2,97.8c-1.7.1-3,0-4.5-.5-.9-1.1-1.6-2.2-2.2-4.2L83.5,26.5l5.7,5.7L27.2,97.8Z"/>
  <rect class="st4" x="26.6" y="77.6" width="92.9" height="8.1" transform="translate(-36.5 78.7) rotate(-46.7)"/>
  <path class="st5" d="M30.7,123.8l-7.5,2.9-2,.4c-2-4.7-5.8-7.8-10.3-10.1l6.8-19.2c2,2.9,4.6,4.3,8,4.4-.3,5.7,4.1,9.5,9.6,9.3-.3,3.9,1.4,7,5.2,8.6l-9.8,3.7Z"/>
  <rect class="st0" x="97" y="13.6" width="10.4" height="36.1" transform="translate(7.5 81.4) rotate(-45)"/>
</svg>