<?xml version="1.0" encoding="UTF-8"?>
<svg id="Layer_1" xmlns="http://www.w3.org/2000/svg" version="1.1" viewBox="0 0 132.2 135.5">
  <!-- Generator: Adobe Illustrator 30.5.1, SVG Export Plug-In . SVG Version: 2.1.4 Build 3)  -->
  <defs>
    <style>
      .st0 {
        fill: #180e02;
      }

      .st1 {
        fill: #170d01;
      }

      .st2 {
        fill: #f1ad33;
      }

      .st3 {
        fill: #120701;
      }

      .st4 {
        fill: #130701;
      }

      .st5 {
        fill: #2f1f05;
      }

      .st6 {
        fill: #180a04;
      }

      .st7 {
        fill: #180b04;
      }
    </style>
  </defs>
  <path class="st5" d="M64.8,32.1c10.4,0,20.7,0,31.1-.3,2.2,0,4.9,2.2,4.9,4.6l-.2.5v29.8c0,0,1.2,1.1,1.2,1.1.3.3,1.4,0,1.8-.2,7.3-5.9,17.6-5.2,23.8,1.9,4.1,4.5,5.7,10.5,4.1,16.8s-5,10-10.4,12.2-12.5,1.3-17.6-2.6c-.4-.3-1.7-.6-2-.2l-1.1,1.5c0,11.2,0,22.3.3,33.4,0,2.7-2.8,4.9-5.6,4.9h-30.9c-2.7,0-4.9-1.6-5.6-4.1s-.2-4.6,1.2-6.5c3.4-4.4,2.8-10.4-1.6-13.9s-11.5-3.7-16.3-.1-5.2,9.2-2,13.6,1.5,2.4,1.7,3.8c.7,3.8-2.1,7.2-6,7.2H5.9c-3,0-5.9-2.2-5.9-5.2C.3,119,.3,107.1,0,95.9c0-1.8,1.5-3.6,3.1-4.4,2.7-1.3,5.3-.7,7.6.8,4.1,2.6,9.4,2.6,13.3-.4,3.5-2.6,5.3-6.7,5-11s-2.3-7.7-5.9-9.9-8.5-2.4-12.2.2-4.8,2.2-7.5,1S0,69.7,0,67.8c.3-10.2.3-20.9,0-31.1,0-2.7,2.6-4.9,5.2-4.9l.5.2h30.6c.8-1.2,1.2-2.4.4-3.4-6-7.3-5.2-17.9,2-24.2,6.1-5.4,15.2-6,21.9-1.4s10.3,17.7,3.6,25.7-.2,2.3.6,3.3Z"/>
  <g>
    <polygon class="st7" points="95.9 31.8 95.5 32.2 64.8 32.1 95.9 31.8"/>
    <g>
      <polygon class="st0" points="0 130.3 0 95.9 .3 96.2 .3 129.9 0 130.3"/>
      <polygon class="st4" points="100.7 130.6 100.4 130.2 100.5 97.2 100.7 130.6"/>
      <path class="st6" d="M36.2,32.1H5.6c-.1,0-.4-.2-.4-.3l31,.3Z"/>
      <polygon class="st1" points="0 67.8 0 36.8 .3 37.1 .3 67.5 0 67.8"/>
      <polygon class="st3" points="100.5 66.7 100.4 36.8 100.7 36.4 100.5 66.7"/>
      <path class="st2" d="M61.6,107.3c-7.6-6.4-20-5.1-25.7,3-3.7,5.3-3.5,12.2.6,17.3s.8,2.9-.5,2.9H5.9c-.5,0-1.2-.7-1.2-1.2v-32.2c0-.5.4-1.3.8-1.5s1.4,0,1.7.1c6,4.3,14,4.5,19.8,0,8.5-6.7,9-19.4,1.1-26.8-5.8-5.5-14.5-6-20.9-1.2s-2.6.3-2.6-.8v-28.9c0-.9.6-1.4,1.5-1.4h30.7c2.3,0,3.9-2.5,4.6-3.9,1-2.5.4-4.7-.9-6.8-2.8-3.6-3.9-7.9-2.3-12.6s4.4-6.9,8.8-8c8-2.1,15.9,3.4,16.4,11.7s-1.4,6.6-3.4,9.5-1.4,4.3-.5,6.5,2.4,3.1,4.6,3.6h31c.4.3.8.7.9,1.2v29.2c0,2.3,1.1,4.2,3.1,5.1s5.1.9,7.3-.7c3.7-2.8,8.4-3.7,12.7-1.9s7.1,5.7,7.8,9.9-.8,9.5-4.5,12.6c-4.4,3.7-10.5,3.8-15.3.6s-3.2-1.8-5.2-1.8c-2.9,0-5.9,2.2-5.9,5.4v34.4c0,0-32,0-32,0-1,0-1-2-.6-2.6,5.2-6.3,4.4-15.3-2-20.6Z"/>
    </g>
  </g>
</svg>